<svg height="500" preserveAspectRatio="xMidYMid meet" viewBox="0 0 375 374.999991" width="500" xmlns="http://www.w3.org/2000/svg" xmlns:xlink="http://www.w3.org/1999/xlink" zoomAndPan="magnify"><clipPath id="a"><path d="m120.300781 173.691406h24v27.75h-24zm0 0"/></clipPath><g clip-path="url(#a)"><path d="m122.441406 201.195312 21.167969-12.632812v-.003906c.410156-.238282.691406-.679688.691406-1.1875 0-.457032-.226562-.859375-.566406-1.109375v-.003907l-.015625-.007812c-.0625-.046875-.132812-.085938-.207031-.121094l-21.078125-12.199218c-.21875-.144532-.480469-.230469-.761719-.230469-.757813 0-1.371094.617187-1.371094 1.375v24.984375c0 .757812.613281 1.375 1.371094 1.375.285156 0 .550781-.089844.769531-.238282zm0 0" fill="#00c8c2"/></g><g fill="#949398"><path d="m17.953125-1.359375v1.359375h-14.328125v-20.765625h13.875v1.359375h-12.359375v8.1875h11.0625v1.34375h-11.0625v8.515625zm0 0" transform="translate(144.303451 197.726428)"/><path d="m20.203125-20.765625-9.25 20.765625h-1.515625l-9.265625-20.765625h1.671875l8.390625 18.8125 8.40625-18.8125zm0 0" transform="translate(164.146143 197.726428)"/><path d="m9.078125.140625c-1.523437 0-2.96875-.257813-4.34375-.78125-1.375-.519531-2.449219-1.195313-3.21875-2.03125l.6875-1.125c.726563.773437 1.707031 1.402344 2.9375 1.890625 1.238281.480469 2.539063.71875 3.90625.71875 1.976563 0 3.472656-.375 4.484375-1.125 1.007812-.75 1.515625-1.726562 1.515625-2.9375 0-.925781-.273437-1.664062-.8125-2.21875-.53125-.5625-1.195313-.988281-1.984375-1.28125-.792969-.300781-1.859375-.609375-3.203125-.921875-1.523437-.375-2.746094-.738281-3.671875-1.09375-.917969-.363281-1.699219-.914063-2.34375-1.65625-.636719-.738281-.953125-1.734375-.953125-2.984375 0-1 .265625-1.921875.796875-2.765625s1.34375-1.507813 2.4375-2c1.101562-.5 2.476562-.75 4.125-.75 1.144531 0 2.269531.171875 3.375.515625 1.113281.335938 2.078125.789062 2.890625 1.359375l-.578125 1.21875c-.824219-.570313-1.734375-1.003906-2.734375-1.296875-1-.300781-1.984375-.453125-2.953125-.453125-1.917969 0-3.371094.386719-4.359375 1.15625-.992187.773437-1.484375 1.773437-1.484375 3 0 .929687.265625 1.667969.796875 2.21875.53125.554687 1.191406.980469 1.984375 1.28125.789062.292969 1.867188.605469 3.234375.9375 1.519531.375 2.734375.746094 3.640625 1.109375.914062.355469 1.695312.890625 2.34375 1.609375.644531.71875.96875 1.695313.96875 2.921875 0 1.011719-.277344 1.933594-.828125 2.765625-.542969.835937-1.375 1.496094-2.5 1.984375-1.125.492188-2.511719.734375-4.15625.734375zm0 0" transform="translate(187.728009 197.523546)"/><path d="m3.625-20.765625h1.515625v20.765625h-1.515625zm0 0" transform="translate(205.791087 197.523546)"/><path d="m7.59375-19.40625h-7.46875v-1.359375h16.46875v1.359375h-7.484375v19.40625h-1.515625zm0 0" transform="translate(214.54085 197.523546)"/><path d="m17.953125-1.359375v1.359375h-14.328125v-20.765625h13.875v1.359375h-12.359375v8.1875h11.0625v1.34375h-11.0625v8.515625zm0 0" transform="translate(231.239553 197.523546)"/></g></svg>