<svg xmlns="http://www.w3.org/2000/svg" xmlns:xlink="http://www.w3.org/1999/xlink" width="300" zoomAndPan="magnify" viewBox="0 0 224.87999 112.499997" height="150" preserveAspectRatio="xMidYMid meet" version="1.0"><defs><g/></defs><g fill="#dfe3e7" fill-opacity="1"><g transform="translate(23.324673, 68.333529)"><g><path d="M 11.578125 -38.5 L 11.578125 -7.703125 L 24.828125 -7.703125 L 24.828125 0 L 2.796875 0 L 2.796875 -38.5 Z M 11.578125 -38.5 "/></g></g></g><g fill="#dfe3e7" fill-opacity="1"><g transform="translate(45.304277, 68.333529)"><g><path d="M 24.828125 -38.5 L 24.828125 -30.796875 L 11.578125 -30.796875 L 11.578125 -23.15625 L 24.265625 -23.15625 L 24.265625 -15.453125 L 11.578125 -15.453125 L 11.578125 -7.703125 L 24.828125 -7.703125 L 24.828125 0 L 2.796875 0 L 2.796875 -38.5 Z M 24.828125 -38.5 "/></g></g></g><g fill="#dfe3e7" fill-opacity="1"><g transform="translate(67.983895, 68.333529)"><g><path d="M 2.796875 -38.5 L 13.953125 -38.5 C 19.304688 -38.5 23.878906 -36.671875 27.671875 -33.015625 C 31.472656 -29.359375 33.375 -24.78125 33.375 -19.28125 C 33.375 -13.738281 31.484375 -9.140625 27.703125 -5.484375 C 23.921875 -1.828125 19.335938 0 13.953125 0 L 2.796875 0 Z M 11.578125 -7.84375 L 12.921875 -7.84375 C 16.128906 -7.84375 18.75 -8.921875 20.78125 -11.078125 C 22.820312 -13.242188 23.859375 -15.960938 23.890625 -19.234375 C 23.890625 -22.492188 22.867188 -25.210938 20.828125 -27.390625 C 18.796875 -29.566406 16.160156 -30.65625 12.921875 -30.65625 L 11.578125 -30.65625 Z M 11.578125 -7.84375 "/></g></g></g><g fill="#dfe3e7" fill-opacity="1"><g transform="translate(98.036994, 68.333529)"><g><path d="M 37.625 -21.5625 L 37.625 -13.203125 C 36.625 -8.628906 34.441406 -5.164062 31.078125 -2.8125 C 27.722656 -0.46875 23.972656 0.703125 19.828125 0.703125 C 14.640625 0.703125 10.21875 -1.238281 6.5625 -5.125 C 2.90625 -9.019531 1.078125 -13.722656 1.078125 -19.234375 C 1.078125 -24.828125 2.863281 -29.550781 6.4375 -33.40625 C 10.019531 -37.269531 14.484375 -39.203125 19.828125 -39.203125 C 26.085938 -39.203125 31.035156 -37.007812 34.671875 -32.625 L 28.9375 -26.328125 C 26.882812 -29.617188 24.019531 -31.265625 20.34375 -31.265625 C 17.632812 -31.265625 15.320312 -30.085938 13.40625 -27.734375 C 11.5 -25.390625 10.546875 -22.554688 10.546875 -19.234375 C 10.546875 -15.960938 11.5 -13.164062 13.40625 -10.84375 C 15.320312 -8.53125 17.632812 -7.375 20.34375 -7.375 C 22.582031 -7.375 24.535156 -8.050781 26.203125 -9.40625 C 27.867188 -10.757812 28.703125 -12.554688 28.703125 -14.796875 L 19.828125 -14.796875 L 19.828125 -21.5625 Z M 37.625 -21.5625 "/></g></g></g><g fill="#dfe3e7" fill-opacity="1"><g transform="translate(132.336837, 68.333529)"><g><path d="M 24.828125 -38.5 L 24.828125 -30.796875 L 11.578125 -30.796875 L 11.578125 -23.15625 L 24.265625 -23.15625 L 24.265625 -15.453125 L 11.578125 -15.453125 L 11.578125 -7.703125 L 24.828125 -7.703125 L 24.828125 0 L 2.796875 0 L 2.796875 -38.5 Z M 24.828125 -38.5 "/></g></g></g><g fill="#dfe3e7" fill-opacity="1"><g transform="translate(155.016452, 68.333529)"><g><path d="M 2.796875 -38.5 L 16.5625 -38.5 C 20.269531 -38.5 23.289062 -37.507812 25.625 -35.53125 C 27.957031 -33.5625 29.125 -30.738281 29.125 -27.0625 C 29.125 -24.238281 28.414062 -21.867188 27 -19.953125 C 25.582031 -18.035156 23.660156 -16.691406 21.234375 -15.921875 L 34.484375 0 L 23.328125 0 L 11.578125 -15.21875 L 11.578125 0 L 2.796875 0 Z M 11.578125 -21.421875 L 12.59375 -21.421875 C 13.40625 -21.421875 14.09375 -21.4375 14.65625 -21.46875 C 15.21875 -21.5 15.851562 -21.609375 16.5625 -21.796875 C 17.28125 -21.984375 17.859375 -22.25 18.296875 -22.59375 C 18.734375 -22.9375 19.101562 -23.429688 19.40625 -24.078125 C 19.71875 -24.734375 19.875 -25.523438 19.875 -26.453125 C 19.875 -27.390625 19.71875 -28.1875 19.40625 -28.84375 C 19.101562 -29.5 18.734375 -29.992188 18.296875 -30.328125 C 17.859375 -30.671875 17.28125 -30.9375 16.5625 -31.125 C 15.851562 -31.3125 15.21875 -31.421875 14.65625 -31.453125 C 14.09375 -31.484375 13.40625 -31.5 12.59375 -31.5 L 11.578125 -31.5 Z M 11.578125 -21.421875 "/></g></g></g><g fill="#dfe3e7" fill-opacity="1"><g transform="translate(184.042858, 68.333529)"><g><path d="M 8.125 -9.984375 C 9.613281 -9.984375 10.878906 -9.460938 11.921875 -8.421875 C 12.960938 -7.378906 13.484375 -6.113281 13.484375 -4.625 C 13.484375 -3.15625 12.960938 -1.898438 11.921875 -0.859375 C 10.878906 0.179688 9.613281 0.703125 8.125 0.703125 C 6.65625 0.703125 5.398438 0.179688 4.359375 -0.859375 C 3.316406 -1.898438 2.796875 -3.15625 2.796875 -4.625 C 2.796875 -6.113281 3.316406 -7.378906 4.359375 -8.421875 C 5.398438 -9.460938 6.65625 -9.984375 8.125 -9.984375 Z M 8.125 -9.984375 "/></g></g></g><g fill="#dfe3e7" fill-opacity="1"><g transform="translate(26.047625, 77.403803)"><g><path d="M 2.46875 -4.46875 C 2.875 -4.46875 3.175781 -4.367188 3.375 -4.171875 C 3.582031 -3.984375 3.6875 -3.703125 3.6875 -3.328125 C 3.6875 -3.128906 3.632812 -2.953125 3.53125 -2.796875 C 3.4375 -2.648438 3.289062 -2.535156 3.09375 -2.453125 C 2.90625 -2.367188 2.671875 -2.328125 2.390625 -2.328125 L 2.421875 -2.609375 C 2.554688 -2.609375 2.707031 -2.585938 2.875 -2.546875 C 3.039062 -2.515625 3.203125 -2.453125 3.359375 -2.359375 C 3.523438 -2.273438 3.660156 -2.148438 3.765625 -1.984375 C 3.867188 -1.816406 3.921875 -1.609375 3.921875 -1.359375 C 3.921875 -1.078125 3.875 -0.847656 3.78125 -0.671875 C 3.6875 -0.492188 3.566406 -0.351562 3.421875 -0.25 C 3.273438 -0.15625 3.113281 -0.0859375 2.9375 -0.046875 C 2.769531 -0.015625 2.609375 0 2.453125 0 L 0.859375 0 C 0.753906 0 0.664062 -0.0351562 0.59375 -0.109375 C 0.519531 -0.179688 0.484375 -0.273438 0.484375 -0.390625 L 0.484375 -4.078125 C 0.484375 -4.179688 0.519531 -4.269531 0.59375 -4.34375 C 0.664062 -4.425781 0.753906 -4.46875 0.859375 -4.46875 Z M 2.359375 -3.703125 L 1.21875 -3.703125 L 1.3125 -3.8125 L 1.3125 -2.65625 L 1.234375 -2.71875 L 2.375 -2.71875 C 2.5 -2.71875 2.609375 -2.753906 2.703125 -2.828125 C 2.804688 -2.910156 2.859375 -3.03125 2.859375 -3.1875 C 2.859375 -3.375 2.8125 -3.503906 2.71875 -3.578125 C 2.625 -3.660156 2.503906 -3.703125 2.359375 -3.703125 Z M 2.40625 -1.96875 L 1.25 -1.96875 L 1.3125 -2.015625 L 1.3125 -0.671875 L 1.25 -0.734375 L 2.453125 -0.734375 C 2.648438 -0.734375 2.804688 -0.785156 2.921875 -0.890625 C 3.035156 -0.992188 3.09375 -1.148438 3.09375 -1.359375 C 3.09375 -1.546875 3.050781 -1.679688 2.96875 -1.765625 C 2.894531 -1.859375 2.804688 -1.914062 2.703125 -1.9375 C 2.597656 -1.957031 2.5 -1.96875 2.40625 -1.96875 Z M 2.40625 -1.96875 "/></g></g></g><g fill="#dfe3e7" fill-opacity="1"><g transform="translate(32.484824, 77.403803)"><g><path d="M 2.9375 -3.40625 C 3.050781 -3.40625 3.144531 -3.367188 3.21875 -3.296875 C 3.289062 -3.222656 3.328125 -3.128906 3.328125 -3.015625 L 3.328125 -1.40625 C 3.328125 -0.957031 3.203125 -0.597656 2.953125 -0.328125 C 2.703125 -0.0664062 2.34375 0.0625 1.875 0.0625 C 1.394531 0.0625 1.03125 -0.0664062 0.78125 -0.328125 C 0.539062 -0.597656 0.421875 -0.957031 0.421875 -1.40625 L 0.421875 -3.015625 C 0.421875 -3.128906 0.453125 -3.222656 0.515625 -3.296875 C 0.585938 -3.367188 0.679688 -3.40625 0.796875 -3.40625 C 0.910156 -3.40625 1 -3.367188 1.0625 -3.296875 C 1.132812 -3.222656 1.171875 -3.128906 1.171875 -3.015625 L 1.171875 -1.40625 C 1.171875 -1.144531 1.226562 -0.953125 1.34375 -0.828125 C 1.46875 -0.703125 1.644531 -0.640625 1.875 -0.640625 C 2.101562 -0.640625 2.273438 -0.703125 2.390625 -0.828125 C 2.503906 -0.953125 2.5625 -1.144531 2.5625 -1.40625 L 2.5625 -3.015625 C 2.5625 -3.128906 2.597656 -3.222656 2.671875 -3.296875 C 2.742188 -3.367188 2.832031 -3.40625 2.9375 -3.40625 Z M 2.9375 -3.40625 "/></g></g></g><g fill="#dfe3e7" fill-opacity="1"><g transform="translate(38.488195, 77.403803)"><g><path d="M 0.21875 -0.53125 C 0.175781 -0.59375 0.15625 -0.671875 0.15625 -0.765625 C 0.164062 -0.859375 0.222656 -0.9375 0.328125 -1 C 0.390625 -1.039062 0.457031 -1.054688 0.53125 -1.046875 C 0.613281 -1.046875 0.691406 -1.007812 0.765625 -0.9375 C 0.890625 -0.8125 1.019531 -0.710938 1.15625 -0.640625 C 1.289062 -0.578125 1.457031 -0.546875 1.65625 -0.546875 C 1.726562 -0.546875 1.800781 -0.550781 1.875 -0.5625 C 1.945312 -0.582031 2.007812 -0.617188 2.0625 -0.671875 C 2.125 -0.734375 2.15625 -0.816406 2.15625 -0.921875 C 2.15625 -1.015625 2.125 -1.085938 2.0625 -1.140625 C 2 -1.203125 1.914062 -1.25 1.8125 -1.28125 C 1.707031 -1.320312 1.59375 -1.359375 1.46875 -1.390625 C 1.332031 -1.429688 1.195312 -1.472656 1.0625 -1.515625 C 0.925781 -1.566406 0.800781 -1.628906 0.6875 -1.703125 C 0.570312 -1.773438 0.476562 -1.875 0.40625 -2 C 0.332031 -2.125 0.296875 -2.28125 0.296875 -2.46875 C 0.296875 -2.675781 0.351562 -2.851562 0.46875 -3 C 0.59375 -3.15625 0.75 -3.269531 0.9375 -3.34375 C 1.125 -3.425781 1.320312 -3.46875 1.53125 -3.46875 C 1.664062 -3.46875 1.800781 -3.453125 1.9375 -3.421875 C 2.082031 -3.390625 2.222656 -3.335938 2.359375 -3.265625 C 2.492188 -3.203125 2.601562 -3.113281 2.6875 -3 C 2.738281 -2.9375 2.765625 -2.859375 2.765625 -2.765625 C 2.773438 -2.679688 2.738281 -2.601562 2.65625 -2.53125 C 2.59375 -2.476562 2.515625 -2.453125 2.421875 -2.453125 C 2.335938 -2.460938 2.269531 -2.492188 2.21875 -2.546875 C 2.144531 -2.640625 2.046875 -2.710938 1.921875 -2.765625 C 1.804688 -2.816406 1.671875 -2.84375 1.515625 -2.84375 C 1.453125 -2.84375 1.378906 -2.835938 1.296875 -2.828125 C 1.222656 -2.816406 1.160156 -2.785156 1.109375 -2.734375 C 1.054688 -2.679688 1.03125 -2.601562 1.03125 -2.5 C 1.03125 -2.40625 1.0625 -2.328125 1.125 -2.265625 C 1.1875 -2.210938 1.269531 -2.164062 1.375 -2.125 C 1.488281 -2.09375 1.609375 -2.054688 1.734375 -2.015625 C 1.859375 -1.984375 1.984375 -1.941406 2.109375 -1.890625 C 2.242188 -1.847656 2.363281 -1.785156 2.46875 -1.703125 C 2.582031 -1.628906 2.671875 -1.53125 2.734375 -1.40625 C 2.804688 -1.289062 2.84375 -1.140625 2.84375 -0.953125 C 2.84375 -0.734375 2.78125 -0.546875 2.65625 -0.390625 C 2.53125 -0.242188 2.367188 -0.128906 2.171875 -0.046875 C 1.984375 0.0234375 1.789062 0.0625 1.59375 0.0625 C 1.34375 0.0625 1.09375 0.0195312 0.84375 -0.0625 C 0.59375 -0.15625 0.382812 -0.3125 0.21875 -0.53125 Z M 0.21875 -0.53125 "/></g></g></g><g fill="#dfe3e7" fill-opacity="1"><g transform="translate(43.821687, 77.403803)"><g><path d="M 1.140625 -0.390625 C 1.140625 -0.273438 1.101562 -0.179688 1.03125 -0.109375 C 0.957031 -0.0351562 0.863281 0 0.75 0 C 0.644531 0 0.554688 -0.0351562 0.484375 -0.109375 C 0.410156 -0.179688 0.375 -0.273438 0.375 -0.390625 L 0.375 -3.015625 C 0.375 -3.128906 0.410156 -3.222656 0.484375 -3.296875 C 0.554688 -3.367188 0.644531 -3.40625 0.75 -3.40625 C 0.863281 -3.40625 0.957031 -3.367188 1.03125 -3.296875 C 1.101562 -3.222656 1.140625 -3.128906 1.140625 -3.015625 Z M 0.75 -3.828125 C 0.601562 -3.828125 0.5 -3.847656 0.4375 -3.890625 C 0.375 -3.941406 0.34375 -4.023438 0.34375 -4.140625 L 0.34375 -4.265625 C 0.34375 -4.390625 0.375 -4.472656 0.4375 -4.515625 C 0.507812 -4.554688 0.613281 -4.578125 0.75 -4.578125 C 0.894531 -4.578125 1 -4.550781 1.0625 -4.5 C 1.125 -4.457031 1.15625 -4.378906 1.15625 -4.265625 L 1.15625 -4.140625 C 1.15625 -4.015625 1.125 -3.929688 1.0625 -3.890625 C 1 -3.847656 0.894531 -3.828125 0.75 -3.828125 Z M 0.75 -3.828125 "/></g></g></g><g fill="#dfe3e7" fill-opacity="1"><g transform="translate(47.585748, 77.403803)"><g><path d="M 2.234375 -3.46875 C 2.546875 -3.46875 2.785156 -3.398438 2.953125 -3.265625 C 3.117188 -3.140625 3.234375 -2.96875 3.296875 -2.75 C 3.359375 -2.53125 3.390625 -2.285156 3.390625 -2.015625 L 3.390625 -0.390625 C 3.390625 -0.273438 3.351562 -0.179688 3.28125 -0.109375 C 3.207031 -0.0351562 3.113281 0 3 0 C 2.894531 0 2.804688 -0.0351562 2.734375 -0.109375 C 2.660156 -0.179688 2.625 -0.273438 2.625 -0.390625 L 2.625 -2.015625 C 2.625 -2.160156 2.601562 -2.285156 2.5625 -2.390625 C 2.53125 -2.503906 2.46875 -2.59375 2.375 -2.65625 C 2.28125 -2.726562 2.144531 -2.765625 1.96875 -2.765625 C 1.800781 -2.765625 1.65625 -2.726562 1.53125 -2.65625 C 1.414062 -2.59375 1.328125 -2.503906 1.265625 -2.390625 C 1.203125 -2.285156 1.171875 -2.160156 1.171875 -2.015625 L 1.171875 -0.390625 C 1.171875 -0.273438 1.132812 -0.179688 1.0625 -0.109375 C 1 -0.0351562 0.910156 0 0.796875 0 C 0.679688 0 0.585938 -0.0351562 0.515625 -0.109375 C 0.453125 -0.179688 0.421875 -0.273438 0.421875 -0.390625 L 0.421875 -3.015625 C 0.421875 -3.128906 0.453125 -3.222656 0.515625 -3.296875 C 0.585938 -3.367188 0.679688 -3.40625 0.796875 -3.40625 C 0.910156 -3.40625 1 -3.367188 1.0625 -3.296875 C 1.132812 -3.222656 1.171875 -3.128906 1.171875 -3.015625 L 1.171875 -2.75 L 1.078125 -2.765625 C 1.117188 -2.835938 1.175781 -2.914062 1.25 -3 C 1.320312 -3.082031 1.40625 -3.160156 1.5 -3.234375 C 1.601562 -3.304688 1.710938 -3.363281 1.828125 -3.40625 C 1.953125 -3.445312 2.085938 -3.46875 2.234375 -3.46875 Z M 2.234375 -3.46875 "/></g></g></g><g fill="#dfe3e7" fill-opacity="1"><g transform="translate(53.646538, 77.403803)"><g><path d="M 2.015625 0.0625 C 1.660156 0.0625 1.347656 -0.0078125 1.078125 -0.15625 C 0.816406 -0.3125 0.613281 -0.519531 0.46875 -0.78125 C 0.320312 -1.039062 0.25 -1.332031 0.25 -1.65625 C 0.25 -2.039062 0.328125 -2.367188 0.484375 -2.640625 C 0.640625 -2.910156 0.84375 -3.113281 1.09375 -3.25 C 1.34375 -3.394531 1.609375 -3.46875 1.890625 -3.46875 C 2.109375 -3.46875 2.3125 -3.421875 2.5 -3.328125 C 2.695312 -3.242188 2.867188 -3.125 3.015625 -2.96875 C 3.171875 -2.8125 3.289062 -2.628906 3.375 -2.421875 C 3.457031 -2.222656 3.5 -2.007812 3.5 -1.78125 C 3.5 -1.675781 3.457031 -1.59375 3.375 -1.53125 C 3.300781 -1.46875 3.21875 -1.4375 3.125 -1.4375 L 0.6875 -1.4375 L 0.484375 -2.078125 L 2.828125 -2.078125 L 2.6875 -1.953125 L 2.6875 -2.125 C 2.675781 -2.25 2.628906 -2.359375 2.546875 -2.453125 C 2.472656 -2.546875 2.378906 -2.617188 2.265625 -2.671875 C 2.148438 -2.734375 2.023438 -2.765625 1.890625 -2.765625 C 1.765625 -2.765625 1.644531 -2.75 1.53125 -2.71875 C 1.425781 -2.6875 1.332031 -2.628906 1.25 -2.546875 C 1.164062 -2.460938 1.097656 -2.351562 1.046875 -2.21875 C 1.003906 -2.082031 0.984375 -1.910156 0.984375 -1.703125 C 0.984375 -1.472656 1.03125 -1.28125 1.125 -1.125 C 1.226562 -0.96875 1.351562 -0.847656 1.5 -0.765625 C 1.65625 -0.679688 1.816406 -0.640625 1.984375 -0.640625 C 2.140625 -0.640625 2.265625 -0.648438 2.359375 -0.671875 C 2.453125 -0.703125 2.523438 -0.734375 2.578125 -0.765625 C 2.640625 -0.804688 2.691406 -0.835938 2.734375 -0.859375 C 2.816406 -0.898438 2.890625 -0.921875 2.953125 -0.921875 C 3.046875 -0.921875 3.125 -0.890625 3.1875 -0.828125 C 3.25 -0.765625 3.28125 -0.6875 3.28125 -0.59375 C 3.28125 -0.476562 3.222656 -0.375 3.109375 -0.28125 C 2.992188 -0.1875 2.835938 -0.101562 2.640625 -0.03125 C 2.441406 0.03125 2.234375 0.0625 2.015625 0.0625 Z M 2.015625 0.0625 "/></g></g></g><g fill="#dfe3e7" fill-opacity="1"><g transform="translate(59.669046, 77.403803)"><g><path d="M 0.21875 -0.53125 C 0.175781 -0.59375 0.15625 -0.671875 0.15625 -0.765625 C 0.164062 -0.859375 0.222656 -0.9375 0.328125 -1 C 0.390625 -1.039062 0.457031 -1.054688 0.53125 -1.046875 C 0.613281 -1.046875 0.691406 -1.007812 0.765625 -0.9375 C 0.890625 -0.8125 1.019531 -0.710938 1.15625 -0.640625 C 1.289062 -0.578125 1.457031 -0.546875 1.65625 -0.546875 C 1.726562 -0.546875 1.800781 -0.550781 1.875 -0.5625 C 1.945312 -0.582031 2.007812 -0.617188 2.0625 -0.671875 C 2.125 -0.734375 2.15625 -0.816406 2.15625 -0.921875 C 2.15625 -1.015625 2.125 -1.085938 2.0625 -1.140625 C 2 -1.203125 1.914062 -1.25 1.8125 -1.28125 C 1.707031 -1.320312 1.59375 -1.359375 1.46875 -1.390625 C 1.332031 -1.429688 1.195312 -1.472656 1.0625 -1.515625 C 0.925781 -1.566406 0.800781 -1.628906 0.6875 -1.703125 C 0.570312 -1.773438 0.476562 -1.875 0.40625 -2 C 0.332031 -2.125 0.296875 -2.28125 0.296875 -2.46875 C 0.296875 -2.675781 0.351562 -2.851562 0.46875 -3 C 0.59375 -3.15625 0.75 -3.269531 0.9375 -3.34375 C 1.125 -3.425781 1.320312 -3.46875 1.53125 -3.46875 C 1.664062 -3.46875 1.800781 -3.453125 1.9375 -3.421875 C 2.082031 -3.390625 2.222656 -3.335938 2.359375 -3.265625 C 2.492188 -3.203125 2.601562 -3.113281 2.6875 -3 C 2.738281 -2.9375 2.765625 -2.859375 2.765625 -2.765625 C 2.773438 -2.679688 2.738281 -2.601562 2.65625 -2.53125 C 2.59375 -2.476562 2.515625 -2.453125 2.421875 -2.453125 C 2.335938 -2.460938 2.269531 -2.492188 2.21875 -2.546875 C 2.144531 -2.640625 2.046875 -2.710938 1.921875 -2.765625 C 1.804688 -2.816406 1.671875 -2.84375 1.515625 -2.84375 C 1.453125 -2.84375 1.378906 -2.835938 1.296875 -2.828125 C 1.222656 -2.816406 1.160156 -2.785156 1.109375 -2.734375 C 1.054688 -2.679688 1.03125 -2.601562 1.03125 -2.5 C 1.03125 -2.40625 1.0625 -2.328125 1.125 -2.265625 C 1.1875 -2.210938 1.269531 -2.164062 1.375 -2.125 C 1.488281 -2.09375 1.609375 -2.054688 1.734375 -2.015625 C 1.859375 -1.984375 1.984375 -1.941406 2.109375 -1.890625 C 2.242188 -1.847656 2.363281 -1.785156 2.46875 -1.703125 C 2.582031 -1.628906 2.671875 -1.53125 2.734375 -1.40625 C 2.804688 -1.289062 2.84375 -1.140625 2.84375 -0.953125 C 2.84375 -0.734375 2.78125 -0.546875 2.65625 -0.390625 C 2.53125 -0.242188 2.367188 -0.128906 2.171875 -0.046875 C 1.984375 0.0234375 1.789062 0.0625 1.59375 0.0625 C 1.34375 0.0625 1.09375 0.0195312 0.84375 -0.0625 C 0.59375 -0.15625 0.382812 -0.3125 0.21875 -0.53125 Z M 0.21875 -0.53125 "/></g></g></g><g fill="#dfe3e7" fill-opacity="1"><g transform="translate(65.002537, 77.403803)"><g><path d="M 0.21875 -0.53125 C 0.175781 -0.59375 0.15625 -0.671875 0.15625 -0.765625 C 0.164062 -0.859375 0.222656 -0.9375 0.328125 -1 C 0.390625 -1.039062 0.457031 -1.054688 0.53125 -1.046875 C 0.613281 -1.046875 0.691406 -1.007812 0.765625 -0.9375 C 0.890625 -0.8125 1.019531 -0.710938 1.15625 -0.640625 C 1.289062 -0.578125 1.457031 -0.546875 1.65625 -0.546875 C 1.726562 -0.546875 1.800781 -0.550781 1.875 -0.5625 C 1.945312 -0.582031 2.007812 -0.617188 2.0625 -0.671875 C 2.125 -0.734375 2.15625 -0.816406 2.15625 -0.921875 C 2.15625 -1.015625 2.125 -1.085938 2.0625 -1.140625 C 2 -1.203125 1.914062 -1.25 1.8125 -1.28125 C 1.707031 -1.320312 1.59375 -1.359375 1.46875 -1.390625 C 1.332031 -1.429688 1.195312 -1.472656 1.0625 -1.515625 C 0.925781 -1.566406 0.800781 -1.628906 0.6875 -1.703125 C 0.570312 -1.773438 0.476562 -1.875 0.40625 -2 C 0.332031 -2.125 0.296875 -2.28125 0.296875 -2.46875 C 0.296875 -2.675781 0.351562 -2.851562 0.46875 -3 C 0.59375 -3.15625 0.75 -3.269531 0.9375 -3.34375 C 1.125 -3.425781 1.320312 -3.46875 1.53125 -3.46875 C 1.664062 -3.46875 1.800781 -3.453125 1.9375 -3.421875 C 2.082031 -3.390625 2.222656 -3.335938 2.359375 -3.265625 C 2.492188 -3.203125 2.601562 -3.113281 2.6875 -3 C 2.738281 -2.9375 2.765625 -2.859375 2.765625 -2.765625 C 2.773438 -2.679688 2.738281 -2.601562 2.65625 -2.53125 C 2.59375 -2.476562 2.515625 -2.453125 2.421875 -2.453125 C 2.335938 -2.460938 2.269531 -2.492188 2.21875 -2.546875 C 2.144531 -2.640625 2.046875 -2.710938 1.921875 -2.765625 C 1.804688 -2.816406 1.671875 -2.84375 1.515625 -2.84375 C 1.453125 -2.84375 1.378906 -2.835938 1.296875 -2.828125 C 1.222656 -2.816406 1.160156 -2.785156 1.109375 -2.734375 C 1.054688 -2.679688 1.03125 -2.601562 1.03125 -2.5 C 1.03125 -2.40625 1.0625 -2.328125 1.125 -2.265625 C 1.1875 -2.210938 1.269531 -2.164062 1.375 -2.125 C 1.488281 -2.09375 1.609375 -2.054688 1.734375 -2.015625 C 1.859375 -1.984375 1.984375 -1.941406 2.109375 -1.890625 C 2.242188 -1.847656 2.363281 -1.785156 2.46875 -1.703125 C 2.582031 -1.628906 2.671875 -1.53125 2.734375 -1.40625 C 2.804688 -1.289062 2.84375 -1.140625 2.84375 -0.953125 C 2.84375 -0.734375 2.78125 -0.546875 2.65625 -0.390625 C 2.53125 -0.242188 2.367188 -0.128906 2.171875 -0.046875 C 1.984375 0.0234375 1.789062 0.0625 1.59375 0.0625 C 1.34375 0.0625 1.09375 0.0195312 0.84375 -0.0625 C 0.59375 -0.15625 0.382812 -0.3125 0.21875 -0.53125 Z M 0.21875 -0.53125 "/></g></g></g><g fill="#dfe3e7" fill-opacity="1"><g transform="translate(70.33603, 77.403803)"><g/></g></g><g fill="#dfe3e7" fill-opacity="1"><g transform="translate(74.380808, 77.403803)"><g><path d="M 2.203125 -3.46875 C 2.546875 -3.46875 2.796875 -3.382812 2.953125 -3.21875 C 3.117188 -3.0625 3.226562 -2.851562 3.28125 -2.59375 L 3.171875 -2.65625 L 3.21875 -2.75 C 3.269531 -2.851562 3.347656 -2.957031 3.453125 -3.0625 C 3.554688 -3.175781 3.679688 -3.269531 3.828125 -3.34375 C 3.984375 -3.425781 4.15625 -3.46875 4.34375 -3.46875 C 4.65625 -3.46875 4.890625 -3.398438 5.046875 -3.265625 C 5.203125 -3.140625 5.3125 -2.96875 5.375 -2.75 C 5.4375 -2.53125 5.46875 -2.285156 5.46875 -2.015625 L 5.46875 -0.390625 C 5.46875 -0.273438 5.429688 -0.179688 5.359375 -0.109375 C 5.285156 -0.0351562 5.191406 0 5.078125 0 C 4.972656 0 4.882812 -0.0351562 4.8125 -0.109375 C 4.738281 -0.179688 4.703125 -0.273438 4.703125 -0.390625 L 4.703125 -2.015625 C 4.703125 -2.160156 4.679688 -2.285156 4.640625 -2.390625 C 4.609375 -2.503906 4.546875 -2.59375 4.453125 -2.65625 C 4.367188 -2.726562 4.242188 -2.765625 4.078125 -2.765625 C 3.921875 -2.765625 3.785156 -2.726562 3.671875 -2.65625 C 3.554688 -2.59375 3.46875 -2.503906 3.40625 -2.390625 C 3.351562 -2.285156 3.328125 -2.160156 3.328125 -2.015625 L 3.328125 -0.390625 C 3.328125 -0.273438 3.289062 -0.179688 3.21875 -0.109375 C 3.144531 -0.0351562 3.050781 0 2.9375 0 C 2.820312 0 2.726562 -0.0351562 2.65625 -0.109375 C 2.59375 -0.179688 2.5625 -0.273438 2.5625 -0.390625 L 2.5625 -2.015625 C 2.5625 -2.160156 2.539062 -2.285156 2.5 -2.390625 C 2.46875 -2.503906 2.40625 -2.59375 2.3125 -2.65625 C 2.226562 -2.726562 2.101562 -2.765625 1.9375 -2.765625 C 1.78125 -2.765625 1.640625 -2.726562 1.515625 -2.65625 C 1.398438 -2.59375 1.3125 -2.503906 1.25 -2.390625 C 1.195312 -2.285156 1.171875 -2.160156 1.171875 -2.015625 L 1.171875 -0.390625 C 1.171875 -0.273438 1.132812 -0.179688 1.0625 -0.109375 C 1 -0.0351562 0.910156 0 0.796875 0 C 0.679688 0 0.585938 -0.0351562 0.515625 -0.109375 C 0.453125 -0.179688 0.421875 -0.273438 0.421875 -0.390625 L 0.421875 -3.015625 C 0.421875 -3.128906 0.453125 -3.222656 0.515625 -3.296875 C 0.585938 -3.367188 0.679688 -3.40625 0.796875 -3.40625 C 0.910156 -3.40625 1 -3.367188 1.0625 -3.296875 C 1.132812 -3.222656 1.171875 -3.128906 1.171875 -3.015625 L 1.171875 -2.75 L 1.078125 -2.765625 C 1.117188 -2.835938 1.171875 -2.914062 1.234375 -3 C 1.304688 -3.082031 1.390625 -3.160156 1.484375 -3.234375 C 1.585938 -3.304688 1.695312 -3.363281 1.8125 -3.40625 C 1.9375 -3.445312 2.066406 -3.46875 2.203125 -3.46875 Z M 2.203125 -3.46875 "/></g></g></g><g fill="#dfe3e7" fill-opacity="1"><g transform="translate(82.521406, 77.403803)"><g><path d="M 3.203125 -3.46875 C 3.316406 -3.46875 3.410156 -3.429688 3.484375 -3.359375 C 3.554688 -3.285156 3.59375 -3.191406 3.59375 -3.078125 L 3.59375 -0.390625 C 3.59375 -0.273438 3.554688 -0.179688 3.484375 -0.109375 C 3.410156 -0.0351562 3.316406 0 3.203125 0 C 3.097656 0 3.007812 -0.0351562 2.9375 -0.109375 C 2.863281 -0.179688 2.828125 -0.273438 2.828125 -0.390625 L 2.828125 -0.703125 L 2.96875 -0.640625 C 2.96875 -0.585938 2.9375 -0.519531 2.875 -0.4375 C 2.8125 -0.363281 2.726562 -0.285156 2.625 -0.203125 C 2.53125 -0.128906 2.410156 -0.0664062 2.265625 -0.015625 C 2.128906 0.0351562 1.984375 0.0625 1.828125 0.0625 C 1.535156 0.0625 1.269531 -0.0078125 1.03125 -0.15625 C 0.789062 -0.3125 0.597656 -0.519531 0.453125 -0.78125 C 0.316406 -1.050781 0.25 -1.359375 0.25 -1.703125 C 0.25 -2.046875 0.316406 -2.347656 0.453125 -2.609375 C 0.597656 -2.878906 0.785156 -3.085938 1.015625 -3.234375 C 1.253906 -3.390625 1.515625 -3.46875 1.796875 -3.46875 C 1.984375 -3.46875 2.148438 -3.441406 2.296875 -3.390625 C 2.453125 -3.335938 2.585938 -3.265625 2.703125 -3.171875 C 2.816406 -3.085938 2.898438 -3.003906 2.953125 -2.921875 C 3.015625 -2.835938 3.046875 -2.765625 3.046875 -2.703125 L 2.828125 -2.625 L 2.828125 -3.078125 C 2.828125 -3.191406 2.863281 -3.285156 2.9375 -3.359375 C 3.007812 -3.429688 3.097656 -3.46875 3.203125 -3.46875 Z M 1.921875 -0.640625 C 2.109375 -0.640625 2.269531 -0.6875 2.40625 -0.78125 C 2.550781 -0.875 2.660156 -1 2.734375 -1.15625 C 2.816406 -1.320312 2.859375 -1.503906 2.859375 -1.703125 C 2.859375 -1.910156 2.816406 -2.09375 2.734375 -2.25 C 2.660156 -2.414062 2.550781 -2.539062 2.40625 -2.625 C 2.269531 -2.71875 2.109375 -2.765625 1.921875 -2.765625 C 1.734375 -2.765625 1.566406 -2.71875 1.421875 -2.625 C 1.285156 -2.539062 1.175781 -2.414062 1.09375 -2.25 C 1.019531 -2.09375 0.984375 -1.910156 0.984375 -1.703125 C 0.984375 -1.503906 1.019531 -1.320312 1.09375 -1.15625 C 1.175781 -1 1.285156 -0.875 1.421875 -0.78125 C 1.566406 -0.6875 1.734375 -0.640625 1.921875 -0.640625 Z M 1.921875 -0.640625 "/></g></g></g><g fill="#dfe3e7" fill-opacity="1"><g transform="translate(88.786349, 77.403803)"><g><path d="M 2.234375 -3.46875 C 2.546875 -3.46875 2.785156 -3.398438 2.953125 -3.265625 C 3.117188 -3.140625 3.234375 -2.96875 3.296875 -2.75 C 3.359375 -2.53125 3.390625 -2.285156 3.390625 -2.015625 L 3.390625 -0.390625 C 3.390625 -0.273438 3.351562 -0.179688 3.28125 -0.109375 C 3.207031 -0.0351562 3.113281 0 3 0 C 2.894531 0 2.804688 -0.0351562 2.734375 -0.109375 C 2.660156 -0.179688 2.625 -0.273438 2.625 -0.390625 L 2.625 -2.015625 C 2.625 -2.160156 2.601562 -2.285156 2.5625 -2.390625 C 2.53125 -2.503906 2.46875 -2.59375 2.375 -2.65625 C 2.28125 -2.726562 2.144531 -2.765625 1.96875 -2.765625 C 1.800781 -2.765625 1.65625 -2.726562 1.53125 -2.65625 C 1.414062 -2.59375 1.328125 -2.503906 1.265625 -2.390625 C 1.203125 -2.285156 1.171875 -2.160156 1.171875 -2.015625 L 1.171875 -0.390625 C 1.171875 -0.273438 1.132812 -0.179688 1.0625 -0.109375 C 1 -0.0351562 0.910156 0 0.796875 0 C 0.679688 0 0.585938 -0.0351562 0.515625 -0.109375 C 0.453125 -0.179688 0.421875 -0.273438 0.421875 -0.390625 L 0.421875 -3.015625 C 0.421875 -3.128906 0.453125 -3.222656 0.515625 -3.296875 C 0.585938 -3.367188 0.679688 -3.40625 0.796875 -3.40625 C 0.910156 -3.40625 1 -3.367188 1.0625 -3.296875 C 1.132812 -3.222656 1.171875 -3.128906 1.171875 -3.015625 L 1.171875 -2.75 L 1.078125 -2.765625 C 1.117188 -2.835938 1.175781 -2.914062 1.25 -3 C 1.320312 -3.082031 1.40625 -3.160156 1.5 -3.234375 C 1.601562 -3.304688 1.710938 -3.363281 1.828125 -3.40625 C 1.953125 -3.445312 2.085938 -3.46875 2.234375 -3.46875 Z M 2.234375 -3.46875 "/></g></g></g><g fill="#dfe3e7" fill-opacity="1"><g transform="translate(94.847135, 77.403803)"><g><path d="M 3.203125 -3.46875 C 3.316406 -3.46875 3.410156 -3.429688 3.484375 -3.359375 C 3.554688 -3.285156 3.59375 -3.191406 3.59375 -3.078125 L 3.59375 -0.390625 C 3.59375 -0.273438 3.554688 -0.179688 3.484375 -0.109375 C 3.410156 -0.0351562 3.316406 0 3.203125 0 C 3.097656 0 3.007812 -0.0351562 2.9375 -0.109375 C 2.863281 -0.179688 2.828125 -0.273438 2.828125 -0.390625 L 2.828125 -0.703125 L 2.96875 -0.640625 C 2.96875 -0.585938 2.9375 -0.519531 2.875 -0.4375 C 2.8125 -0.363281 2.726562 -0.285156 2.625 -0.203125 C 2.53125 -0.128906 2.410156 -0.0664062 2.265625 -0.015625 C 2.128906 0.0351562 1.984375 0.0625 1.828125 0.0625 C 1.535156 0.0625 1.269531 -0.0078125 1.03125 -0.15625 C 0.789062 -0.3125 0.597656 -0.519531 0.453125 -0.78125 C 0.316406 -1.050781 0.25 -1.359375 0.25 -1.703125 C 0.25 -2.046875 0.316406 -2.347656 0.453125 -2.609375 C 0.597656 -2.878906 0.785156 -3.085938 1.015625 -3.234375 C 1.253906 -3.390625 1.515625 -3.46875 1.796875 -3.46875 C 1.984375 -3.46875 2.148438 -3.441406 2.296875 -3.390625 C 2.453125 -3.335938 2.585938 -3.265625 2.703125 -3.171875 C 2.816406 -3.085938 2.898438 -3.003906 2.953125 -2.921875 C 3.015625 -2.835938 3.046875 -2.765625 3.046875 -2.703125 L 2.828125 -2.625 L 2.828125 -3.078125 C 2.828125 -3.191406 2.863281 -3.285156 2.9375 -3.359375 C 3.007812 -3.429688 3.097656 -3.46875 3.203125 -3.46875 Z M 1.921875 -0.640625 C 2.109375 -0.640625 2.269531 -0.6875 2.40625 -0.78125 C 2.550781 -0.875 2.660156 -1 2.734375 -1.15625 C 2.816406 -1.320312 2.859375 -1.503906 2.859375 -1.703125 C 2.859375 -1.910156 2.816406 -2.09375 2.734375 -2.25 C 2.660156 -2.414062 2.550781 -2.539062 2.40625 -2.625 C 2.269531 -2.71875 2.109375 -2.765625 1.921875 -2.765625 C 1.734375 -2.765625 1.566406 -2.71875 1.421875 -2.625 C 1.285156 -2.539062 1.175781 -2.414062 1.09375 -2.25 C 1.019531 -2.09375 0.984375 -1.910156 0.984375 -1.703125 C 0.984375 -1.503906 1.019531 -1.320312 1.09375 -1.15625 C 1.175781 -1 1.285156 -0.875 1.421875 -0.78125 C 1.566406 -0.6875 1.734375 -0.640625 1.921875 -0.640625 Z M 1.921875 -0.640625 "/></g></g></g><g fill="#dfe3e7" fill-opacity="1"><g transform="translate(101.112079, 77.403803)"><g><path d="M 1.828125 -3.46875 C 2.003906 -3.46875 2.164062 -3.441406 2.3125 -3.390625 C 2.46875 -3.335938 2.597656 -3.265625 2.703125 -3.171875 C 2.816406 -3.085938 2.898438 -3.003906 2.953125 -2.921875 C 3.015625 -2.835938 3.046875 -2.765625 3.046875 -2.703125 L 2.890625 -2.625 L 2.890625 -3.078125 C 2.890625 -3.191406 2.925781 -3.285156 3 -3.359375 C 3.070312 -3.429688 3.160156 -3.46875 3.265625 -3.46875 C 3.378906 -3.46875 3.472656 -3.429688 3.546875 -3.359375 C 3.617188 -3.285156 3.65625 -3.191406 3.65625 -3.078125 L 3.65625 -0.25 C 3.65625 0.125 3.570312 0.421875 3.40625 0.640625 C 3.25 0.859375 3.039062 1.019531 2.78125 1.125 C 2.519531 1.226562 2.242188 1.28125 1.953125 1.28125 C 1.867188 1.28125 1.757812 1.269531 1.625 1.25 C 1.488281 1.226562 1.359375 1.203125 1.234375 1.171875 C 1.109375 1.140625 1.015625 1.109375 0.953125 1.078125 C 0.828125 1.023438 0.738281 0.957031 0.6875 0.875 C 0.632812 0.789062 0.625 0.703125 0.65625 0.609375 C 0.695312 0.484375 0.757812 0.398438 0.84375 0.359375 C 0.925781 0.316406 1.015625 0.3125 1.109375 0.34375 C 1.148438 0.351562 1.21875 0.378906 1.3125 0.421875 C 1.414062 0.460938 1.523438 0.5 1.640625 0.53125 C 1.753906 0.5625 1.859375 0.578125 1.953125 0.578125 C 2.265625 0.578125 2.5 0.507812 2.65625 0.375 C 2.8125 0.25 2.890625 0.078125 2.890625 -0.140625 L 2.890625 -0.703125 L 2.96875 -0.640625 C 2.96875 -0.585938 2.9375 -0.519531 2.875 -0.4375 C 2.820312 -0.363281 2.742188 -0.285156 2.640625 -0.203125 C 2.546875 -0.128906 2.425781 -0.0664062 2.28125 -0.015625 C 2.144531 0.0351562 2.003906 0.0625 1.859375 0.0625 C 1.554688 0.0625 1.28125 -0.0078125 1.03125 -0.15625 C 0.789062 -0.3125 0.597656 -0.519531 0.453125 -0.78125 C 0.316406 -1.050781 0.25 -1.359375 0.25 -1.703125 C 0.25 -2.046875 0.316406 -2.347656 0.453125 -2.609375 C 0.597656 -2.878906 0.789062 -3.085938 1.03125 -3.234375 C 1.269531 -3.390625 1.535156 -3.46875 1.828125 -3.46875 Z M 1.953125 -2.765625 C 1.753906 -2.765625 1.582031 -2.71875 1.4375 -2.625 C 1.300781 -2.539062 1.191406 -2.414062 1.109375 -2.25 C 1.023438 -2.09375 0.984375 -1.910156 0.984375 -1.703125 C 0.984375 -1.503906 1.023438 -1.320312 1.109375 -1.15625 C 1.191406 -1 1.300781 -0.875 1.4375 -0.78125 C 1.582031 -0.6875 1.753906 -0.640625 1.953125 -0.640625 C 2.148438 -0.640625 2.316406 -0.6875 2.453125 -0.78125 C 2.597656 -0.875 2.710938 -1 2.796875 -1.15625 C 2.878906 -1.320312 2.921875 -1.503906 2.921875 -1.703125 C 2.921875 -1.910156 2.878906 -2.09375 2.796875 -2.25 C 2.710938 -2.414062 2.597656 -2.539062 2.453125 -2.625 C 2.316406 -2.71875 2.148438 -2.765625 1.953125 -2.765625 Z M 1.953125 -2.765625 "/></g></g></g><g fill="#dfe3e7" fill-opacity="1"><g transform="translate(107.440818, 77.403803)"><g><path d="M 2.015625 0.0625 C 1.660156 0.0625 1.347656 -0.0078125 1.078125 -0.15625 C 0.816406 -0.3125 0.613281 -0.519531 0.46875 -0.78125 C 0.320312 -1.039062 0.25 -1.332031 0.25 -1.65625 C 0.25 -2.039062 0.328125 -2.367188 0.484375 -2.640625 C 0.640625 -2.910156 0.84375 -3.113281 1.09375 -3.25 C 1.34375 -3.394531 1.609375 -3.46875 1.890625 -3.46875 C 2.109375 -3.46875 2.3125 -3.421875 2.5 -3.328125 C 2.695312 -3.242188 2.867188 -3.125 3.015625 -2.96875 C 3.171875 -2.8125 3.289062 -2.628906 3.375 -2.421875 C 3.457031 -2.222656 3.5 -2.007812 3.5 -1.78125 C 3.5 -1.675781 3.457031 -1.59375 3.375 -1.53125 C 3.300781 -1.46875 3.21875 -1.4375 3.125 -1.4375 L 0.6875 -1.4375 L 0.484375 -2.078125 L 2.828125 -2.078125 L 2.6875 -1.953125 L 2.6875 -2.125 C 2.675781 -2.25 2.628906 -2.359375 2.546875 -2.453125 C 2.472656 -2.546875 2.378906 -2.617188 2.265625 -2.671875 C 2.148438 -2.734375 2.023438 -2.765625 1.890625 -2.765625 C 1.765625 -2.765625 1.644531 -2.75 1.53125 -2.71875 C 1.425781 -2.6875 1.332031 -2.628906 1.25 -2.546875 C 1.164062 -2.460938 1.097656 -2.351562 1.046875 -2.21875 C 1.003906 -2.082031 0.984375 -1.910156 0.984375 -1.703125 C 0.984375 -1.472656 1.03125 -1.28125 1.125 -1.125 C 1.226562 -0.96875 1.351562 -0.847656 1.5 -0.765625 C 1.65625 -0.679688 1.816406 -0.640625 1.984375 -0.640625 C 2.140625 -0.640625 2.265625 -0.648438 2.359375 -0.671875 C 2.453125 -0.703125 2.523438 -0.734375 2.578125 -0.765625 C 2.640625 -0.804688 2.691406 -0.835938 2.734375 -0.859375 C 2.816406 -0.898438 2.890625 -0.921875 2.953125 -0.921875 C 3.046875 -0.921875 3.125 -0.890625 3.1875 -0.828125 C 3.25 -0.765625 3.28125 -0.6875 3.28125 -0.59375 C 3.28125 -0.476562 3.222656 -0.375 3.109375 -0.28125 C 2.992188 -0.1875 2.835938 -0.101562 2.640625 -0.03125 C 2.441406 0.03125 2.234375 0.0625 2.015625 0.0625 Z M 2.015625 0.0625 "/></g></g></g><g fill="#dfe3e7" fill-opacity="1"><g transform="translate(113.463326, 77.403803)"><g><path d="M 2.203125 -3.46875 C 2.546875 -3.46875 2.796875 -3.382812 2.953125 -3.21875 C 3.117188 -3.0625 3.226562 -2.851562 3.28125 -2.59375 L 3.171875 -2.65625 L 3.21875 -2.75 C 3.269531 -2.851562 3.347656 -2.957031 3.453125 -3.0625 C 3.554688 -3.175781 3.679688 -3.269531 3.828125 -3.34375 C 3.984375 -3.425781 4.15625 -3.46875 4.34375 -3.46875 C 4.65625 -3.46875 4.890625 -3.398438 5.046875 -3.265625 C 5.203125 -3.140625 5.3125 -2.96875 5.375 -2.75 C 5.4375 -2.53125 5.46875 -2.285156 5.46875 -2.015625 L 5.46875 -0.390625 C 5.46875 -0.273438 5.429688 -0.179688 5.359375 -0.109375 C 5.285156 -0.0351562 5.191406 0 5.078125 0 C 4.972656 0 4.882812 -0.0351562 4.8125 -0.109375 C 4.738281 -0.179688 4.703125 -0.273438 4.703125 -0.390625 L 4.703125 -2.015625 C 4.703125 -2.160156 4.679688 -2.285156 4.640625 -2.390625 C 4.609375 -2.503906 4.546875 -2.59375 4.453125 -2.65625 C 4.367188 -2.726562 4.242188 -2.765625 4.078125 -2.765625 C 3.921875 -2.765625 3.785156 -2.726562 3.671875 -2.65625 C 3.554688 -2.59375 3.46875 -2.503906 3.40625 -2.390625 C 3.351562 -2.285156 3.328125 -2.160156 3.328125 -2.015625 L 3.328125 -0.390625 C 3.328125 -0.273438 3.289062 -0.179688 3.21875 -0.109375 C 3.144531 -0.0351562 3.050781 0 2.9375 0 C 2.820312 0 2.726562 -0.0351562 2.65625 -0.109375 C 2.59375 -0.179688 2.5625 -0.273438 2.5625 -0.390625 L 2.5625 -2.015625 C 2.5625 -2.160156 2.539062 -2.285156 2.5 -2.390625 C 2.46875 -2.503906 2.40625 -2.59375 2.3125 -2.65625 C 2.226562 -2.726562 2.101562 -2.765625 1.9375 -2.765625 C 1.78125 -2.765625 1.640625 -2.726562 1.515625 -2.65625 C 1.398438 -2.59375 1.3125 -2.503906 1.25 -2.390625 C 1.195312 -2.285156 1.171875 -2.160156 1.171875 -2.015625 L 1.171875 -0.390625 C 1.171875 -0.273438 1.132812 -0.179688 1.0625 -0.109375 C 1 -0.0351562 0.910156 0 0.796875 0 C 0.679688 0 0.585938 -0.0351562 0.515625 -0.109375 C 0.453125 -0.179688 0.421875 -0.273438 0.421875 -0.390625 L 0.421875 -3.015625 C 0.421875 -3.128906 0.453125 -3.222656 0.515625 -3.296875 C 0.585938 -3.367188 0.679688 -3.40625 0.796875 -3.40625 C 0.910156 -3.40625 1 -3.367188 1.0625 -3.296875 C 1.132812 -3.222656 1.171875 -3.128906 1.171875 -3.015625 L 1.171875 -2.75 L 1.078125 -2.765625 C 1.117188 -2.835938 1.171875 -2.914062 1.234375 -3 C 1.304688 -3.082031 1.390625 -3.160156 1.484375 -3.234375 C 1.585938 -3.304688 1.695312 -3.363281 1.8125 -3.40625 C 1.9375 -3.445312 2.066406 -3.46875 2.203125 -3.46875 Z M 2.203125 -3.46875 "/></g></g></g><g fill="#dfe3e7" fill-opacity="1"><g transform="translate(121.603924, 77.403803)"><g><path d="M 2.015625 0.0625 C 1.660156 0.0625 1.347656 -0.0078125 1.078125 -0.15625 C 0.816406 -0.3125 0.613281 -0.519531 0.46875 -0.78125 C 0.320312 -1.039062 0.25 -1.332031 0.25 -1.65625 C 0.25 -2.039062 0.328125 -2.367188 0.484375 -2.640625 C 0.640625 -2.910156 0.84375 -3.113281 1.09375 -3.25 C 1.34375 -3.394531 1.609375 -3.46875 1.890625 -3.46875 C 2.109375 -3.46875 2.3125 -3.421875 2.5 -3.328125 C 2.695312 -3.242188 2.867188 -3.125 3.015625 -2.96875 C 3.171875 -2.8125 3.289062 -2.628906 3.375 -2.421875 C 3.457031 -2.222656 3.5 -2.007812 3.5 -1.78125 C 3.5 -1.675781 3.457031 -1.59375 3.375 -1.53125 C 3.300781 -1.46875 3.21875 -1.4375 3.125 -1.4375 L 0.6875 -1.4375 L 0.484375 -2.078125 L 2.828125 -2.078125 L 2.6875 -1.953125 L 2.6875 -2.125 C 2.675781 -2.25 2.628906 -2.359375 2.546875 -2.453125 C 2.472656 -2.546875 2.378906 -2.617188 2.265625 -2.671875 C 2.148438 -2.734375 2.023438 -2.765625 1.890625 -2.765625 C 1.765625 -2.765625 1.644531 -2.75 1.53125 -2.71875 C 1.425781 -2.6875 1.332031 -2.628906 1.25 -2.546875 C 1.164062 -2.460938 1.097656 -2.351562 1.046875 -2.21875 C 1.003906 -2.082031 0.984375 -1.910156 0.984375 -1.703125 C 0.984375 -1.472656 1.03125 -1.28125 1.125 -1.125 C 1.226562 -0.96875 1.351562 -0.847656 1.5 -0.765625 C 1.65625 -0.679688 1.816406 -0.640625 1.984375 -0.640625 C 2.140625 -0.640625 2.265625 -0.648438 2.359375 -0.671875 C 2.453125 -0.703125 2.523438 -0.734375 2.578125 -0.765625 C 2.640625 -0.804688 2.691406 -0.835938 2.734375 -0.859375 C 2.816406 -0.898438 2.890625 -0.921875 2.953125 -0.921875 C 3.046875 -0.921875 3.125 -0.890625 3.1875 -0.828125 C 3.25 -0.765625 3.28125 -0.6875 3.28125 -0.59375 C 3.28125 -0.476562 3.222656 -0.375 3.109375 -0.28125 C 2.992188 -0.1875 2.835938 -0.101562 2.640625 -0.03125 C 2.441406 0.03125 2.234375 0.0625 2.015625 0.0625 Z M 2.015625 0.0625 "/></g></g></g><g fill="#dfe3e7" fill-opacity="1"><g transform="translate(127.626432, 77.403803)"><g><path d="M 2.234375 -3.46875 C 2.546875 -3.46875 2.785156 -3.398438 2.953125 -3.265625 C 3.117188 -3.140625 3.234375 -2.96875 3.296875 -2.75 C 3.359375 -2.53125 3.390625 -2.285156 3.390625 -2.015625 L 3.390625 -0.390625 C 3.390625 -0.273438 3.351562 -0.179688 3.28125 -0.109375 C 3.207031 -0.0351562 3.113281 0 3 0 C 2.894531 0 2.804688 -0.0351562 2.734375 -0.109375 C 2.660156 -0.179688 2.625 -0.273438 2.625 -0.390625 L 2.625 -2.015625 C 2.625 -2.160156 2.601562 -2.285156 2.5625 -2.390625 C 2.53125 -2.503906 2.46875 -2.59375 2.375 -2.65625 C 2.28125 -2.726562 2.144531 -2.765625 1.96875 -2.765625 C 1.800781 -2.765625 1.65625 -2.726562 1.53125 -2.65625 C 1.414062 -2.59375 1.328125 -2.503906 1.265625 -2.390625 C 1.203125 -2.285156 1.171875 -2.160156 1.171875 -2.015625 L 1.171875 -0.390625 C 1.171875 -0.273438 1.132812 -0.179688 1.0625 -0.109375 C 1 -0.0351562 0.910156 0 0.796875 0 C 0.679688 0 0.585938 -0.0351562 0.515625 -0.109375 C 0.453125 -0.179688 0.421875 -0.273438 0.421875 -0.390625 L 0.421875 -3.015625 C 0.421875 -3.128906 0.453125 -3.222656 0.515625 -3.296875 C 0.585938 -3.367188 0.679688 -3.40625 0.796875 -3.40625 C 0.910156 -3.40625 1 -3.367188 1.0625 -3.296875 C 1.132812 -3.222656 1.171875 -3.128906 1.171875 -3.015625 L 1.171875 -2.75 L 1.078125 -2.765625 C 1.117188 -2.835938 1.175781 -2.914062 1.25 -3 C 1.320312 -3.082031 1.40625 -3.160156 1.5 -3.234375 C 1.601562 -3.304688 1.710938 -3.363281 1.828125 -3.40625 C 1.953125 -3.445312 2.085938 -3.46875 2.234375 -3.46875 Z M 2.234375 -3.46875 "/></g></g></g><g fill="#dfe3e7" fill-opacity="1"><g transform="translate(133.687223, 77.403803)"><g><path d="M 0.453125 -3.34375 L 1.96875 -3.34375 C 2.0625 -3.34375 2.144531 -3.304688 2.21875 -3.234375 C 2.289062 -3.171875 2.328125 -3.085938 2.328125 -2.984375 C 2.328125 -2.890625 2.289062 -2.804688 2.21875 -2.734375 C 2.144531 -2.671875 2.0625 -2.640625 1.96875 -2.640625 L 0.453125 -2.640625 C 0.347656 -2.640625 0.257812 -2.671875 0.1875 -2.734375 C 0.125 -2.804688 0.09375 -2.894531 0.09375 -3 C 0.09375 -3.101562 0.125 -3.1875 0.1875 -3.25 C 0.257812 -3.3125 0.347656 -3.34375 0.453125 -3.34375 Z M 1.140625 -4.140625 C 1.242188 -4.140625 1.332031 -4.101562 1.40625 -4.03125 C 1.476562 -3.957031 1.515625 -3.863281 1.515625 -3.75 L 1.515625 -0.921875 C 1.515625 -0.859375 1.523438 -0.804688 1.546875 -0.765625 C 1.566406 -0.734375 1.597656 -0.707031 1.640625 -0.6875 C 1.679688 -0.664062 1.722656 -0.65625 1.765625 -0.65625 C 1.816406 -0.65625 1.863281 -0.664062 1.90625 -0.6875 C 1.945312 -0.707031 2 -0.71875 2.0625 -0.71875 C 2.113281 -0.71875 2.164062 -0.6875 2.21875 -0.625 C 2.269531 -0.570312 2.296875 -0.5 2.296875 -0.40625 C 2.296875 -0.289062 2.226562 -0.191406 2.09375 -0.109375 C 1.96875 -0.0351562 1.832031 0 1.6875 0 C 1.59375 0 1.488281 -0.00390625 1.375 -0.015625 C 1.269531 -0.0351562 1.171875 -0.0703125 1.078125 -0.125 C 0.984375 -0.1875 0.90625 -0.273438 0.84375 -0.390625 C 0.78125 -0.515625 0.75 -0.679688 0.75 -0.890625 L 0.75 -3.75 C 0.75 -3.863281 0.785156 -3.957031 0.859375 -4.03125 C 0.929688 -4.101562 1.023438 -4.140625 1.140625 -4.140625 Z M 1.140625 -4.140625 "/></g></g></g><g fill="#dfe3e7" fill-opacity="1"><g transform="translate(138.55499, 77.403803)"><g/></g></g><g fill="#dfe3e7" fill-opacity="1"><g transform="translate(142.599768, 77.403803)"><g><path d="M 1.78125 0.0625 C 1.476562 0.0625 1.207031 0 0.96875 -0.125 C 0.726562 -0.257812 0.535156 -0.429688 0.390625 -0.640625 C 0.253906 -0.859375 0.1875 -1.085938 0.1875 -1.328125 C 0.1875 -1.546875 0.222656 -1.742188 0.296875 -1.921875 C 0.378906 -2.097656 0.492188 -2.253906 0.640625 -2.390625 C 0.785156 -2.523438 0.976562 -2.640625 1.21875 -2.734375 L 1.71875 -2.21875 C 1.414062 -2.144531 1.210938 -2.046875 1.109375 -1.921875 C 1.015625 -1.796875 0.96875 -1.640625 0.96875 -1.453125 C 0.96875 -1.316406 1 -1.1875 1.0625 -1.0625 C 1.125 -0.945312 1.226562 -0.847656 1.375 -0.765625 C 1.519531 -0.691406 1.710938 -0.65625 1.953125 -0.65625 C 2.148438 -0.65625 2.328125 -0.703125 2.484375 -0.796875 C 2.648438 -0.890625 2.789062 -1.007812 2.90625 -1.15625 C 3.019531 -1.3125 3.113281 -1.476562 3.1875 -1.65625 C 3.269531 -1.84375 3.320312 -2.03125 3.34375 -2.21875 C 3.351562 -2.289062 3.378906 -2.34375 3.421875 -2.375 C 3.472656 -2.414062 3.550781 -2.4375 3.65625 -2.4375 C 3.757812 -2.4375 3.84375 -2.390625 3.90625 -2.296875 C 3.976562 -2.210938 4.003906 -2.113281 3.984375 -2 C 3.941406 -1.738281 3.867188 -1.484375 3.765625 -1.234375 C 3.660156 -0.992188 3.515625 -0.773438 3.328125 -0.578125 C 3.148438 -0.378906 2.929688 -0.222656 2.671875 -0.109375 C 2.410156 0.00390625 2.113281 0.0625 1.78125 0.0625 Z M 4.046875 0.015625 C 3.992188 0.015625 3.945312 0.0078125 3.90625 0 C 3.875 -0.0195312 3.847656 -0.0351562 3.828125 -0.046875 C 3.523438 -0.316406 3.242188 -0.5625 2.984375 -0.78125 C 2.734375 -1 2.5 -1.210938 2.28125 -1.421875 C 2.070312 -1.628906 1.878906 -1.835938 1.703125 -2.046875 C 1.546875 -2.210938 1.40625 -2.363281 1.28125 -2.5 C 1.164062 -2.632812 1.066406 -2.765625 0.984375 -2.890625 C 0.910156 -3.023438 0.875 -3.171875 0.875 -3.328125 C 0.875 -3.535156 0.929688 -3.726562 1.046875 -3.90625 C 1.160156 -4.09375 1.320312 -4.242188 1.53125 -4.359375 C 1.738281 -4.472656 1.984375 -4.53125 2.265625 -4.53125 C 2.554688 -4.53125 2.820312 -4.476562 3.0625 -4.375 C 3.300781 -4.28125 3.457031 -4.148438 3.53125 -3.984375 C 3.539062 -3.984375 3.550781 -3.957031 3.5625 -3.90625 C 3.582031 -3.863281 3.59375 -3.804688 3.59375 -3.734375 C 3.59375 -3.660156 3.5625 -3.59375 3.5 -3.53125 C 3.445312 -3.46875 3.367188 -3.4375 3.265625 -3.4375 C 3.191406 -3.4375 3.132812 -3.445312 3.09375 -3.46875 C 3.0625 -3.5 3.035156 -3.53125 3.015625 -3.5625 C 2.921875 -3.675781 2.8125 -3.757812 2.6875 -3.8125 C 2.570312 -3.863281 2.429688 -3.890625 2.265625 -3.890625 C 2.078125 -3.890625 1.929688 -3.835938 1.828125 -3.734375 C 1.734375 -3.628906 1.6875 -3.507812 1.6875 -3.375 C 1.6875 -3.238281 1.734375 -3.101562 1.828125 -2.96875 C 1.921875 -2.84375 2.023438 -2.722656 2.140625 -2.609375 C 2.265625 -2.492188 2.367188 -2.394531 2.453125 -2.3125 C 2.578125 -2.164062 2.722656 -2.015625 2.890625 -1.859375 C 3.054688 -1.703125 3.222656 -1.546875 3.390625 -1.390625 C 3.554688 -1.242188 3.707031 -1.101562 3.84375 -0.96875 C 3.988281 -0.84375 4.101562 -0.738281 4.1875 -0.65625 C 4.25 -0.601562 4.289062 -0.550781 4.3125 -0.5 C 4.34375 -0.445312 4.359375 -0.382812 4.359375 -0.3125 C 4.359375 -0.257812 4.332031 -0.191406 4.28125 -0.109375 C 4.238281 -0.0234375 4.160156 0.015625 4.046875 0.015625 Z M 4.046875 0.015625 "/></g></g></g><g fill="#dfe3e7" fill-opacity="1"><g transform="translate(149.381471, 77.403803)"><g/></g></g><g fill="#dfe3e7" fill-opacity="1"><g transform="translate(153.426249, 77.403803)"><g><path d="M 1.28125 -0.390625 C 1.28125 -0.273438 1.238281 -0.179688 1.15625 -0.109375 C 1.070312 -0.0351562 0.976562 0 0.875 0 C 0.75 0 0.648438 -0.0351562 0.578125 -0.109375 C 0.515625 -0.179688 0.484375 -0.273438 0.484375 -0.390625 L 0.484375 -4.078125 C 0.484375 -4.179688 0.519531 -4.269531 0.59375 -4.34375 C 0.664062 -4.425781 0.765625 -4.46875 0.890625 -4.46875 C 0.992188 -4.46875 1.082031 -4.425781 1.15625 -4.34375 C 1.238281 -4.269531 1.28125 -4.179688 1.28125 -4.078125 Z M 1.28125 -0.390625 "/></g></g></g><g fill="#dfe3e7" fill-opacity="1"><g transform="translate(157.439121, 77.403803)"><g><path d="M 2.234375 -3.46875 C 2.546875 -3.46875 2.785156 -3.398438 2.953125 -3.265625 C 3.117188 -3.140625 3.234375 -2.96875 3.296875 -2.75 C 3.359375 -2.53125 3.390625 -2.285156 3.390625 -2.015625 L 3.390625 -0.390625 C 3.390625 -0.273438 3.351562 -0.179688 3.28125 -0.109375 C 3.207031 -0.0351562 3.113281 0 3 0 C 2.894531 0 2.804688 -0.0351562 2.734375 -0.109375 C 2.660156 -0.179688 2.625 -0.273438 2.625 -0.390625 L 2.625 -2.015625 C 2.625 -2.160156 2.601562 -2.285156 2.5625 -2.390625 C 2.53125 -2.503906 2.46875 -2.59375 2.375 -2.65625 C 2.28125 -2.726562 2.144531 -2.765625 1.96875 -2.765625 C 1.800781 -2.765625 1.65625 -2.726562 1.53125 -2.65625 C 1.414062 -2.59375 1.328125 -2.503906 1.265625 -2.390625 C 1.203125 -2.285156 1.171875 -2.160156 1.171875 -2.015625 L 1.171875 -0.390625 C 1.171875 -0.273438 1.132812 -0.179688 1.0625 -0.109375 C 1 -0.0351562 0.910156 0 0.796875 0 C 0.679688 0 0.585938 -0.0351562 0.515625 -0.109375 C 0.453125 -0.179688 0.421875 -0.273438 0.421875 -0.390625 L 0.421875 -3.015625 C 0.421875 -3.128906 0.453125 -3.222656 0.515625 -3.296875 C 0.585938 -3.367188 0.679688 -3.40625 0.796875 -3.40625 C 0.910156 -3.40625 1 -3.367188 1.0625 -3.296875 C 1.132812 -3.222656 1.171875 -3.128906 1.171875 -3.015625 L 1.171875 -2.75 L 1.078125 -2.765625 C 1.117188 -2.835938 1.175781 -2.914062 1.25 -3 C 1.320312 -3.082031 1.40625 -3.160156 1.5 -3.234375 C 1.601562 -3.304688 1.710938 -3.363281 1.828125 -3.40625 C 1.953125 -3.445312 2.085938 -3.46875 2.234375 -3.46875 Z M 2.234375 -3.46875 "/></g></g></g><g fill="#dfe3e7" fill-opacity="1"><g transform="translate(163.499911, 77.403803)"><g><path d="M 0.5625 -3.40625 C 0.644531 -3.40625 0.71875 -3.382812 0.78125 -3.34375 C 0.851562 -3.3125 0.90625 -3.253906 0.9375 -3.171875 L 1.875 -1.03125 L 1.734375 -0.96875 L 2.703125 -3.15625 C 2.773438 -3.332031 2.882812 -3.414062 3.03125 -3.40625 C 3.132812 -3.40625 3.21875 -3.367188 3.28125 -3.296875 C 3.351562 -3.234375 3.390625 -3.15625 3.390625 -3.0625 C 3.390625 -3.03125 3.382812 -2.992188 3.375 -2.953125 C 3.363281 -2.921875 3.351562 -2.894531 3.34375 -2.875 L 2.140625 -0.25 C 2.078125 -0.09375 1.972656 -0.0078125 1.828125 0 C 1.742188 0.0078125 1.664062 -0.00390625 1.59375 -0.046875 C 1.519531 -0.0859375 1.460938 -0.15625 1.421875 -0.25 L 0.234375 -2.875 C 0.222656 -2.894531 0.210938 -2.921875 0.203125 -2.953125 C 0.191406 -2.984375 0.1875 -3.023438 0.1875 -3.078125 C 0.1875 -3.148438 0.21875 -3.222656 0.28125 -3.296875 C 0.351562 -3.367188 0.445312 -3.40625 0.5625 -3.40625 Z M 0.5625 -3.40625 "/></g></g></g><g fill="#dfe3e7" fill-opacity="1"><g transform="translate(169.343779, 77.403803)"><g><path d="M 3.71875 -1.703125 C 3.71875 -1.347656 3.640625 -1.035156 3.484375 -0.765625 C 3.328125 -0.503906 3.117188 -0.300781 2.859375 -0.15625 C 2.597656 -0.0078125 2.304688 0.0625 1.984375 0.0625 C 1.660156 0.0625 1.367188 -0.0078125 1.109375 -0.15625 C 0.847656 -0.300781 0.640625 -0.503906 0.484375 -0.765625 C 0.328125 -1.035156 0.25 -1.347656 0.25 -1.703125 C 0.25 -2.046875 0.328125 -2.347656 0.484375 -2.609375 C 0.640625 -2.878906 0.847656 -3.085938 1.109375 -3.234375 C 1.367188 -3.390625 1.660156 -3.46875 1.984375 -3.46875 C 2.304688 -3.46875 2.597656 -3.390625 2.859375 -3.234375 C 3.117188 -3.085938 3.328125 -2.878906 3.484375 -2.609375 C 3.640625 -2.347656 3.71875 -2.046875 3.71875 -1.703125 Z M 2.953125 -1.703125 C 2.953125 -1.921875 2.910156 -2.109375 2.828125 -2.265625 C 2.742188 -2.421875 2.625 -2.539062 2.46875 -2.625 C 2.320312 -2.71875 2.160156 -2.765625 1.984375 -2.765625 C 1.804688 -2.765625 1.644531 -2.71875 1.5 -2.625 C 1.351562 -2.539062 1.234375 -2.421875 1.140625 -2.265625 C 1.054688 -2.109375 1.015625 -1.921875 1.015625 -1.703125 C 1.015625 -1.492188 1.054688 -1.304688 1.140625 -1.140625 C 1.234375 -0.984375 1.351562 -0.859375 1.5 -0.765625 C 1.644531 -0.679688 1.804688 -0.640625 1.984375 -0.640625 C 2.160156 -0.640625 2.320312 -0.679688 2.46875 -0.765625 C 2.625 -0.859375 2.742188 -0.984375 2.828125 -1.140625 C 2.910156 -1.304688 2.953125 -1.492188 2.953125 -1.703125 Z M 2.953125 -1.703125 "/></g></g></g><g fill="#dfe3e7" fill-opacity="1"><g transform="translate(175.583202, 77.403803)"><g><path d="M 1.140625 -0.390625 C 1.140625 -0.273438 1.101562 -0.179688 1.03125 -0.109375 C 0.957031 -0.0351562 0.863281 0 0.75 0 C 0.644531 0 0.554688 -0.0351562 0.484375 -0.109375 C 0.410156 -0.179688 0.375 -0.273438 0.375 -0.390625 L 0.375 -3.015625 C 0.375 -3.128906 0.410156 -3.222656 0.484375 -3.296875 C 0.554688 -3.367188 0.644531 -3.40625 0.75 -3.40625 C 0.863281 -3.40625 0.957031 -3.367188 1.03125 -3.296875 C 1.101562 -3.222656 1.140625 -3.128906 1.140625 -3.015625 Z M 0.75 -3.828125 C 0.601562 -3.828125 0.5 -3.847656 0.4375 -3.890625 C 0.375 -3.941406 0.34375 -4.023438 0.34375 -4.140625 L 0.34375 -4.265625 C 0.34375 -4.390625 0.375 -4.472656 0.4375 -4.515625 C 0.507812 -4.554688 0.613281 -4.578125 0.75 -4.578125 C 0.894531 -4.578125 1 -4.550781 1.0625 -4.5 C 1.125 -4.457031 1.15625 -4.378906 1.15625 -4.265625 L 1.15625 -4.140625 C 1.15625 -4.015625 1.125 -3.929688 1.0625 -3.890625 C 1 -3.847656 0.894531 -3.828125 0.75 -3.828125 Z M 0.75 -3.828125 "/></g></g></g><g fill="#dfe3e7" fill-opacity="1"><g transform="translate(179.347262, 77.403803)"><g><path d="M 1.9375 -3.46875 C 2.175781 -3.46875 2.382812 -3.441406 2.5625 -3.390625 C 2.75 -3.347656 2.890625 -3.28125 2.984375 -3.1875 C 3.085938 -3.09375 3.140625 -2.984375 3.140625 -2.859375 C 3.140625 -2.773438 3.113281 -2.691406 3.0625 -2.609375 C 3.007812 -2.535156 2.9375 -2.5 2.84375 -2.5 C 2.769531 -2.5 2.707031 -2.507812 2.65625 -2.53125 C 2.613281 -2.550781 2.578125 -2.578125 2.546875 -2.609375 C 2.515625 -2.640625 2.472656 -2.664062 2.421875 -2.6875 C 2.378906 -2.71875 2.316406 -2.738281 2.234375 -2.75 C 2.148438 -2.757812 2.085938 -2.765625 2.046875 -2.765625 C 1.828125 -2.765625 1.640625 -2.71875 1.484375 -2.625 C 1.335938 -2.539062 1.222656 -2.414062 1.140625 -2.25 C 1.054688 -2.09375 1.015625 -1.910156 1.015625 -1.703125 C 1.015625 -1.492188 1.054688 -1.3125 1.140625 -1.15625 C 1.222656 -1 1.335938 -0.875 1.484375 -0.78125 C 1.628906 -0.6875 1.800781 -0.640625 2 -0.640625 C 2.101562 -0.640625 2.191406 -0.644531 2.265625 -0.65625 C 2.347656 -0.664062 2.410156 -0.6875 2.453125 -0.71875 C 2.515625 -0.75 2.566406 -0.78125 2.609375 -0.8125 C 2.660156 -0.851562 2.734375 -0.875 2.828125 -0.875 C 2.941406 -0.875 3.023438 -0.835938 3.078125 -0.765625 C 3.140625 -0.703125 3.171875 -0.617188 3.171875 -0.515625 C 3.171875 -0.410156 3.109375 -0.3125 2.984375 -0.21875 C 2.867188 -0.132812 2.710938 -0.0664062 2.515625 -0.015625 C 2.328125 0.0351562 2.125 0.0625 1.90625 0.0625 C 1.5625 0.0625 1.265625 -0.015625 1.015625 -0.171875 C 0.773438 -0.328125 0.585938 -0.535156 0.453125 -0.796875 C 0.316406 -1.066406 0.25 -1.367188 0.25 -1.703125 C 0.25 -2.046875 0.320312 -2.347656 0.46875 -2.609375 C 0.613281 -2.878906 0.8125 -3.085938 1.0625 -3.234375 C 1.3125 -3.390625 1.601562 -3.46875 1.9375 -3.46875 Z M 1.9375 -3.46875 "/></g></g></g><g fill="#dfe3e7" fill-opacity="1"><g transform="translate(184.923182, 77.403803)"><g><path d="M 1.140625 -0.390625 C 1.140625 -0.273438 1.101562 -0.179688 1.03125 -0.109375 C 0.957031 -0.0351562 0.863281 0 0.75 0 C 0.644531 0 0.554688 -0.0351562 0.484375 -0.109375 C 0.410156 -0.179688 0.375 -0.273438 0.375 -0.390625 L 0.375 -3.015625 C 0.375 -3.128906 0.410156 -3.222656 0.484375 -3.296875 C 0.554688 -3.367188 0.644531 -3.40625 0.75 -3.40625 C 0.863281 -3.40625 0.957031 -3.367188 1.03125 -3.296875 C 1.101562 -3.222656 1.140625 -3.128906 1.140625 -3.015625 Z M 0.75 -3.828125 C 0.601562 -3.828125 0.5 -3.847656 0.4375 -3.890625 C 0.375 -3.941406 0.34375 -4.023438 0.34375 -4.140625 L 0.34375 -4.265625 C 0.34375 -4.390625 0.375 -4.472656 0.4375 -4.515625 C 0.507812 -4.554688 0.613281 -4.578125 0.75 -4.578125 C 0.894531 -4.578125 1 -4.550781 1.0625 -4.5 C 1.125 -4.457031 1.15625 -4.378906 1.15625 -4.265625 L 1.15625 -4.140625 C 1.15625 -4.015625 1.125 -3.929688 1.0625 -3.890625 C 1 -3.847656 0.894531 -3.828125 0.75 -3.828125 Z M 0.75 -3.828125 "/></g></g></g><g fill="#dfe3e7" fill-opacity="1"><g transform="translate(188.687243, 77.403803)"><g><path d="M 2.234375 -3.46875 C 2.546875 -3.46875 2.785156 -3.398438 2.953125 -3.265625 C 3.117188 -3.140625 3.234375 -2.96875 3.296875 -2.75 C 3.359375 -2.53125 3.390625 -2.285156 3.390625 -2.015625 L 3.390625 -0.390625 C 3.390625 -0.273438 3.351562 -0.179688 3.28125 -0.109375 C 3.207031 -0.0351562 3.113281 0 3 0 C 2.894531 0 2.804688 -0.0351562 2.734375 -0.109375 C 2.660156 -0.179688 2.625 -0.273438 2.625 -0.390625 L 2.625 -2.015625 C 2.625 -2.160156 2.601562 -2.285156 2.5625 -2.390625 C 2.53125 -2.503906 2.46875 -2.59375 2.375 -2.65625 C 2.28125 -2.726562 2.144531 -2.765625 1.96875 -2.765625 C 1.800781 -2.765625 1.65625 -2.726562 1.53125 -2.65625 C 1.414062 -2.59375 1.328125 -2.503906 1.265625 -2.390625 C 1.203125 -2.285156 1.171875 -2.160156 1.171875 -2.015625 L 1.171875 -0.390625 C 1.171875 -0.273438 1.132812 -0.179688 1.0625 -0.109375 C 1 -0.0351562 0.910156 0 0.796875 0 C 0.679688 0 0.585938 -0.0351562 0.515625 -0.109375 C 0.453125 -0.179688 0.421875 -0.273438 0.421875 -0.390625 L 0.421875 -3.015625 C 0.421875 -3.128906 0.453125 -3.222656 0.515625 -3.296875 C 0.585938 -3.367188 0.679688 -3.40625 0.796875 -3.40625 C 0.910156 -3.40625 1 -3.367188 1.0625 -3.296875 C 1.132812 -3.222656 1.171875 -3.128906 1.171875 -3.015625 L 1.171875 -2.75 L 1.078125 -2.765625 C 1.117188 -2.835938 1.175781 -2.914062 1.25 -3 C 1.320312 -3.082031 1.40625 -3.160156 1.5 -3.234375 C 1.601562 -3.304688 1.710938 -3.363281 1.828125 -3.40625 C 1.953125 -3.445312 2.085938 -3.46875 2.234375 -3.46875 Z M 2.234375 -3.46875 "/></g></g></g><g fill="#dfe3e7" fill-opacity="1"><g transform="translate(194.748033, 77.403803)"><g><path d="M 1.828125 -3.46875 C 2.003906 -3.46875 2.164062 -3.441406 2.3125 -3.390625 C 2.46875 -3.335938 2.597656 -3.265625 2.703125 -3.171875 C 2.816406 -3.085938 2.898438 -3.003906 2.953125 -2.921875 C 3.015625 -2.835938 3.046875 -2.765625 3.046875 -2.703125 L 2.890625 -2.625 L 2.890625 -3.078125 C 2.890625 -3.191406 2.925781 -3.285156 3 -3.359375 C 3.070312 -3.429688 3.160156 -3.46875 3.265625 -3.46875 C 3.378906 -3.46875 3.472656 -3.429688 3.546875 -3.359375 C 3.617188 -3.285156 3.65625 -3.191406 3.65625 -3.078125 L 3.65625 -0.25 C 3.65625 0.125 3.570312 0.421875 3.40625 0.640625 C 3.25 0.859375 3.039062 1.019531 2.78125 1.125 C 2.519531 1.226562 2.242188 1.28125 1.953125 1.28125 C 1.867188 1.28125 1.757812 1.269531 1.625 1.25 C 1.488281 1.226562 1.359375 1.203125 1.234375 1.171875 C 1.109375 1.140625 1.015625 1.109375 0.953125 1.078125 C 0.828125 1.023438 0.738281 0.957031 0.6875 0.875 C 0.632812 0.789062 0.625 0.703125 0.65625 0.609375 C 0.695312 0.484375 0.757812 0.398438 0.84375 0.359375 C 0.925781 0.316406 1.015625 0.3125 1.109375 0.34375 C 1.148438 0.351562 1.21875 0.378906 1.3125 0.421875 C 1.414062 0.460938 1.523438 0.5 1.640625 0.53125 C 1.753906 0.5625 1.859375 0.578125 1.953125 0.578125 C 2.265625 0.578125 2.5 0.507812 2.65625 0.375 C 2.8125 0.25 2.890625 0.078125 2.890625 -0.140625 L 2.890625 -0.703125 L 2.96875 -0.640625 C 2.96875 -0.585938 2.9375 -0.519531 2.875 -0.4375 C 2.820312 -0.363281 2.742188 -0.285156 2.640625 -0.203125 C 2.546875 -0.128906 2.425781 -0.0664062 2.28125 -0.015625 C 2.144531 0.0351562 2.003906 0.0625 1.859375 0.0625 C 1.554688 0.0625 1.28125 -0.0078125 1.03125 -0.15625 C 0.789062 -0.3125 0.597656 -0.519531 0.453125 -0.78125 C 0.316406 -1.050781 0.25 -1.359375 0.25 -1.703125 C 0.25 -2.046875 0.316406 -2.347656 0.453125 -2.609375 C 0.597656 -2.878906 0.789062 -3.085938 1.03125 -3.234375 C 1.269531 -3.390625 1.535156 -3.46875 1.828125 -3.46875 Z M 1.953125 -2.765625 C 1.753906 -2.765625 1.582031 -2.71875 1.4375 -2.625 C 1.300781 -2.539062 1.191406 -2.414062 1.109375 -2.25 C 1.023438 -2.09375 0.984375 -1.910156 0.984375 -1.703125 C 0.984375 -1.503906 1.023438 -1.320312 1.109375 -1.15625 C 1.191406 -1 1.300781 -0.875 1.4375 -0.78125 C 1.582031 -0.6875 1.753906 -0.640625 1.953125 -0.640625 C 2.148438 -0.640625 2.316406 -0.6875 2.453125 -0.78125 C 2.597656 -0.875 2.710938 -1 2.796875 -1.15625 C 2.878906 -1.320312 2.921875 -1.503906 2.921875 -1.703125 C 2.921875 -1.910156 2.878906 -2.09375 2.796875 -2.25 C 2.710938 -2.414062 2.597656 -2.539062 2.453125 -2.625 C 2.316406 -2.71875 2.148438 -2.765625 1.953125 -2.765625 Z M 1.953125 -2.765625 "/></g></g></g></svg>