<svg xmlns="http://www.w3.org/2000/svg" xmlns:xlink="http://www.w3.org/1999/xlink" width="500" zoomAndPan="magnify" viewBox="0 0 375 374.999991" height="500" preserveAspectRatio="xMidYMid meet" version="1.0"><defs><g/></defs><g fill="#000000" fill-opacity="1"><g transform="translate(90.38923, 198.743526)"><g><path d="M 12.703125 -42.25 L 12.703125 -8.453125 L 27.234375 -8.453125 L 27.234375 0 L 3.078125 0 L 3.078125 -42.25 Z M 12.703125 -42.25 "/></g></g></g><g fill="#000000" fill-opacity="1"><g transform="translate(114.502679, 198.743526)"><g><path d="M 27.234375 -42.25 L 27.234375 -33.796875 L 12.703125 -33.796875 L 12.703125 -25.390625 L 26.625 -25.390625 L 26.625 -16.953125 L 12.703125 -16.953125 L 12.703125 -8.453125 L 27.234375 -8.453125 L 27.234375 0 L 3.078125 0 L 3.078125 -42.25 Z M 27.234375 -42.25 "/></g></g></g><g fill="#000000" fill-opacity="1"><g transform="translate(139.384107, 198.743526)"><g><path d="M 3.078125 -42.25 L 15.3125 -42.25 C 21.175781 -42.25 26.191406 -40.238281 30.359375 -36.21875 C 34.523438 -32.207031 36.609375 -27.179688 36.609375 -21.140625 C 36.609375 -15.066406 34.535156 -10.023438 30.390625 -6.015625 C 26.242188 -2.003906 21.21875 0 15.3125 0 L 3.078125 0 Z M 12.703125 -8.609375 L 14.1875 -8.609375 C 17.695312 -8.609375 20.570312 -9.789062 22.8125 -12.15625 C 25.050781 -14.53125 26.1875 -17.507812 26.21875 -21.09375 C 26.21875 -24.675781 25.097656 -27.660156 22.859375 -30.046875 C 20.628906 -32.441406 17.738281 -33.640625 14.1875 -33.640625 L 12.703125 -33.640625 Z M 12.703125 -8.609375 "/></g></g></g><g fill="#000000" fill-opacity="1"><g transform="translate(172.35502, 198.743526)"><g><path d="M 41.265625 -23.65625 L 41.265625 -14.484375 C 40.171875 -9.472656 37.78125 -5.675781 34.09375 -3.09375 C 30.414062 -0.519531 26.304688 0.765625 21.765625 0.765625 C 16.054688 0.765625 11.195312 -1.363281 7.1875 -5.625 C 3.175781 -9.894531 1.171875 -15.050781 1.171875 -21.09375 C 1.171875 -27.238281 3.132812 -32.425781 7.0625 -36.65625 C 10.988281 -40.894531 15.890625 -43.015625 21.765625 -43.015625 C 28.617188 -43.015625 34.046875 -40.609375 38.046875 -35.796875 L 31.75 -28.875 C 29.488281 -32.5 26.347656 -34.3125 22.328125 -34.3125 C 19.359375 -34.3125 16.820312 -33.019531 14.71875 -30.4375 C 12.625 -27.863281 11.578125 -24.75 11.578125 -21.09375 C 11.578125 -17.507812 12.625 -14.445312 14.71875 -11.90625 C 16.820312 -9.363281 19.359375 -8.09375 22.328125 -8.09375 C 24.785156 -8.09375 26.925781 -8.832031 28.75 -10.3125 C 30.570312 -11.800781 31.484375 -13.773438 31.484375 -16.234375 L 21.765625 -16.234375 L 21.765625 -23.65625 Z M 41.265625 -23.65625 "/></g></g></g><g fill="#000000" fill-opacity="1"><g transform="translate(209.985062, 198.743526)"><g><path d="M 27.234375 -42.25 L 27.234375 -33.796875 L 12.703125 -33.796875 L 12.703125 -25.390625 L 26.625 -25.390625 L 26.625 -16.953125 L 12.703125 -16.953125 L 12.703125 -8.453125 L 27.234375 -8.453125 L 27.234375 0 L 3.078125 0 L 3.078125 -42.25 Z M 27.234375 -42.25 "/></g></g></g><g fill="#000000" fill-opacity="1"><g transform="translate(234.866485, 198.743526)"><g><path d="M 3.078125 -42.25 L 18.171875 -42.25 C 22.234375 -42.25 25.546875 -41.160156 28.109375 -38.984375 C 30.671875 -36.816406 31.953125 -33.722656 31.953125 -29.703125 C 31.953125 -26.585938 31.175781 -23.976562 29.625 -21.875 C 28.070312 -19.78125 25.960938 -18.304688 23.296875 -17.453125 L 37.84375 0 L 25.59375 0 L 12.703125 -16.6875 L 12.703125 0 L 3.078125 0 Z M 12.703125 -23.5 L 13.828125 -23.5 C 14.710938 -23.5 15.460938 -23.515625 16.078125 -23.546875 C 16.691406 -23.585938 17.390625 -23.707031 18.171875 -23.90625 C 18.960938 -24.113281 19.59375 -24.40625 20.0625 -24.78125 C 20.539062 -25.15625 20.953125 -25.703125 21.296875 -26.421875 C 21.640625 -27.140625 21.8125 -28.007812 21.8125 -29.03125 C 21.8125 -30.050781 21.640625 -30.921875 21.296875 -31.640625 C 20.953125 -32.359375 20.539062 -32.90625 20.0625 -33.28125 C 19.59375 -33.65625 18.960938 -33.941406 18.171875 -34.140625 C 17.390625 -34.347656 16.691406 -34.46875 16.078125 -34.5 C 15.460938 -34.539062 14.710938 -34.5625 13.828125 -34.5625 L 12.703125 -34.5625 Z M 12.703125 -23.5 "/></g></g></g><g fill="#000000" fill-opacity="1"><g transform="translate(266.711018, 198.743526)"><g><path d="M 8.90625 -10.953125 C 10.539062 -10.953125 11.929688 -10.378906 13.078125 -9.234375 C 14.222656 -8.097656 14.796875 -6.707031 14.796875 -5.0625 C 14.796875 -3.457031 14.222656 -2.082031 13.078125 -0.9375 C 11.929688 0.195312 10.539062 0.765625 8.90625 0.765625 C 7.300781 0.765625 5.925781 0.195312 4.78125 -0.9375 C 3.644531 -2.082031 3.078125 -3.457031 3.078125 -5.0625 C 3.078125 -6.707031 3.644531 -8.097656 4.78125 -9.234375 C 5.925781 -10.378906 7.300781 -10.953125 8.90625 -10.953125 Z M 8.90625 -10.953125 "/></g></g></g><g fill="#000000" fill-opacity="1"><g transform="translate(92.187609, 207.248693)"><g><path d="M 2.015625 -3.640625 C 2.347656 -3.640625 2.59375 -3.5625 2.75 -3.40625 C 2.914062 -3.25 3 -3.019531 3 -2.71875 C 3 -2.550781 2.957031 -2.40625 2.875 -2.28125 C 2.800781 -2.164062 2.6875 -2.070312 2.53125 -2 C 2.375 -1.9375 2.179688 -1.90625 1.953125 -1.90625 L 1.984375 -2.140625 C 2.085938 -2.140625 2.207031 -2.125 2.34375 -2.09375 C 2.476562 -2.0625 2.609375 -2.007812 2.734375 -1.9375 C 2.867188 -1.863281 2.976562 -1.757812 3.0625 -1.625 C 3.15625 -1.488281 3.203125 -1.316406 3.203125 -1.109375 C 3.203125 -0.878906 3.160156 -0.691406 3.078125 -0.546875 C 3.003906 -0.398438 2.90625 -0.285156 2.78125 -0.203125 C 2.664062 -0.128906 2.539062 -0.078125 2.40625 -0.046875 C 2.269531 -0.015625 2.132812 0 2 0 L 0.703125 0 C 0.617188 0 0.546875 -0.03125 0.484375 -0.09375 C 0.421875 -0.15625 0.390625 -0.226562 0.390625 -0.3125 L 0.390625 -3.328125 C 0.390625 -3.410156 0.421875 -3.484375 0.484375 -3.546875 C 0.546875 -3.609375 0.617188 -3.640625 0.703125 -3.640625 Z M 1.921875 -3.03125 L 1 -3.03125 L 1.0625 -3.109375 L 1.0625 -2.171875 L 1 -2.21875 L 1.9375 -2.21875 C 2.039062 -2.21875 2.128906 -2.25 2.203125 -2.3125 C 2.285156 -2.382812 2.328125 -2.476562 2.328125 -2.59375 C 2.328125 -2.75 2.289062 -2.859375 2.21875 -2.921875 C 2.144531 -2.992188 2.046875 -3.03125 1.921875 -3.03125 Z M 1.96875 -1.609375 L 1.015625 -1.609375 L 1.0625 -1.640625 L 1.0625 -0.546875 L 1.015625 -0.59375 L 2 -0.59375 C 2.164062 -0.59375 2.296875 -0.632812 2.390625 -0.71875 C 2.484375 -0.8125 2.53125 -0.941406 2.53125 -1.109375 C 2.53125 -1.265625 2.5 -1.375 2.4375 -1.4375 C 2.375 -1.507812 2.296875 -1.554688 2.203125 -1.578125 C 2.117188 -1.597656 2.039062 -1.609375 1.96875 -1.609375 Z M 1.96875 -1.609375 "/></g></g></g><g fill="#000000" fill-opacity="1"><g transform="translate(98.984048, 207.248693)"><g><path d="M 2.40625 -2.78125 C 2.5 -2.78125 2.570312 -2.75 2.625 -2.6875 C 2.6875 -2.625 2.71875 -2.550781 2.71875 -2.46875 L 2.71875 -1.140625 C 2.71875 -0.773438 2.613281 -0.484375 2.40625 -0.265625 C 2.207031 -0.0546875 1.914062 0.046875 1.53125 0.046875 C 1.144531 0.046875 0.847656 -0.0546875 0.640625 -0.265625 C 0.441406 -0.484375 0.34375 -0.773438 0.34375 -1.140625 L 0.34375 -2.46875 C 0.34375 -2.550781 0.367188 -2.625 0.421875 -2.6875 C 0.484375 -2.75 0.5625 -2.78125 0.65625 -2.78125 C 0.738281 -2.78125 0.8125 -2.75 0.875 -2.6875 C 0.9375 -2.625 0.96875 -2.550781 0.96875 -2.46875 L 0.96875 -1.140625 C 0.96875 -0.929688 1.015625 -0.773438 1.109375 -0.671875 C 1.203125 -0.566406 1.34375 -0.515625 1.53125 -0.515625 C 1.71875 -0.515625 1.859375 -0.566406 1.953125 -0.671875 C 2.046875 -0.773438 2.09375 -0.929688 2.09375 -1.140625 L 2.09375 -2.46875 C 2.09375 -2.550781 2.117188 -2.625 2.171875 -2.6875 C 2.234375 -2.75 2.3125 -2.78125 2.40625 -2.78125 Z M 2.40625 -2.78125 "/></g></g></g><g fill="#000000" fill-opacity="1"><g transform="translate(105.426882, 207.248693)"><g><path d="M 0.171875 -0.4375 C 0.140625 -0.476562 0.125 -0.535156 0.125 -0.609375 C 0.132812 -0.691406 0.179688 -0.757812 0.265625 -0.8125 C 0.316406 -0.851562 0.375 -0.867188 0.4375 -0.859375 C 0.5 -0.859375 0.5625 -0.828125 0.625 -0.765625 C 0.726562 -0.660156 0.832031 -0.582031 0.9375 -0.53125 C 1.050781 -0.476562 1.191406 -0.453125 1.359375 -0.453125 C 1.410156 -0.453125 1.46875 -0.457031 1.53125 -0.46875 C 1.59375 -0.476562 1.644531 -0.503906 1.6875 -0.546875 C 1.738281 -0.597656 1.765625 -0.664062 1.765625 -0.75 C 1.765625 -0.832031 1.738281 -0.894531 1.6875 -0.9375 C 1.632812 -0.976562 1.566406 -1.015625 1.484375 -1.046875 C 1.398438 -1.078125 1.304688 -1.109375 1.203125 -1.140625 C 1.085938 -1.171875 0.972656 -1.203125 0.859375 -1.234375 C 0.753906 -1.273438 0.65625 -1.328125 0.5625 -1.390625 C 0.46875 -1.453125 0.390625 -1.53125 0.328125 -1.625 C 0.265625 -1.726562 0.234375 -1.859375 0.234375 -2.015625 C 0.234375 -2.191406 0.28125 -2.335938 0.375 -2.453125 C 0.476562 -2.578125 0.609375 -2.671875 0.765625 -2.734375 C 0.921875 -2.796875 1.082031 -2.828125 1.25 -2.828125 C 1.351562 -2.828125 1.460938 -2.8125 1.578125 -2.78125 C 1.703125 -2.757812 1.816406 -2.71875 1.921875 -2.65625 C 2.035156 -2.601562 2.128906 -2.535156 2.203125 -2.453125 C 2.234375 -2.398438 2.253906 -2.335938 2.265625 -2.265625 C 2.273438 -2.191406 2.242188 -2.125 2.171875 -2.0625 C 2.117188 -2.019531 2.054688 -2 1.984375 -2 C 1.910156 -2.007812 1.851562 -2.035156 1.8125 -2.078125 C 1.75 -2.148438 1.664062 -2.207031 1.5625 -2.25 C 1.46875 -2.300781 1.359375 -2.328125 1.234375 -2.328125 C 1.179688 -2.328125 1.125 -2.320312 1.0625 -2.3125 C 1 -2.300781 0.945312 -2.273438 0.90625 -2.234375 C 0.863281 -2.191406 0.84375 -2.128906 0.84375 -2.046875 C 0.84375 -1.960938 0.867188 -1.894531 0.921875 -1.84375 C 0.972656 -1.800781 1.039062 -1.765625 1.125 -1.734375 C 1.21875 -1.703125 1.3125 -1.675781 1.40625 -1.65625 C 1.507812 -1.625 1.613281 -1.585938 1.71875 -1.546875 C 1.832031 -1.515625 1.929688 -1.46875 2.015625 -1.40625 C 2.109375 -1.34375 2.179688 -1.257812 2.234375 -1.15625 C 2.296875 -1.0625 2.328125 -0.9375 2.328125 -0.78125 C 2.328125 -0.601562 2.273438 -0.453125 2.171875 -0.328125 C 2.066406 -0.203125 1.9375 -0.109375 1.78125 -0.046875 C 1.625 0.015625 1.460938 0.046875 1.296875 0.046875 C 1.097656 0.046875 0.894531 0.015625 0.6875 -0.046875 C 0.476562 -0.117188 0.304688 -0.25 0.171875 -0.4375 Z M 0.171875 -0.4375 "/></g></g></g><g fill="#000000" fill-opacity="1"><g transform="translate(111.323712, 207.248693)"><g><path d="M 0.921875 -0.3125 C 0.921875 -0.226562 0.890625 -0.15625 0.828125 -0.09375 C 0.773438 -0.03125 0.703125 0 0.609375 0 C 0.523438 0 0.453125 -0.03125 0.390625 -0.09375 C 0.328125 -0.15625 0.296875 -0.226562 0.296875 -0.3125 L 0.296875 -2.46875 C 0.296875 -2.550781 0.328125 -2.625 0.390625 -2.6875 C 0.453125 -2.75 0.523438 -2.78125 0.609375 -2.78125 C 0.703125 -2.78125 0.773438 -2.75 0.828125 -2.6875 C 0.890625 -2.625 0.921875 -2.550781 0.921875 -2.46875 Z M 0.609375 -3.125 C 0.492188 -3.125 0.410156 -3.140625 0.359375 -3.171875 C 0.316406 -3.210938 0.296875 -3.28125 0.296875 -3.375 L 0.296875 -3.484375 C 0.296875 -3.578125 0.320312 -3.640625 0.375 -3.671875 C 0.425781 -3.710938 0.507812 -3.734375 0.625 -3.734375 C 0.738281 -3.734375 0.820312 -3.710938 0.875 -3.671875 C 0.925781 -3.640625 0.953125 -3.578125 0.953125 -3.484375 L 0.953125 -3.375 C 0.953125 -3.28125 0.925781 -3.210938 0.875 -3.171875 C 0.820312 -3.140625 0.734375 -3.125 0.609375 -3.125 Z M 0.609375 -3.125 "/></g></g></g><g fill="#000000" fill-opacity="1"><g transform="translate(115.941326, 207.248693)"><g><path d="M 1.828125 -2.828125 C 2.085938 -2.828125 2.28125 -2.773438 2.40625 -2.671875 C 2.539062 -2.566406 2.632812 -2.425781 2.6875 -2.25 C 2.738281 -2.070312 2.765625 -1.875 2.765625 -1.65625 L 2.765625 -0.3125 C 2.765625 -0.226562 2.734375 -0.15625 2.671875 -0.09375 C 2.609375 -0.03125 2.535156 0 2.453125 0 C 2.359375 0 2.28125 -0.03125 2.21875 -0.09375 C 2.164062 -0.15625 2.140625 -0.226562 2.140625 -0.3125 L 2.140625 -1.65625 C 2.140625 -1.769531 2.125 -1.867188 2.09375 -1.953125 C 2.0625 -2.046875 2.007812 -2.117188 1.9375 -2.171875 C 1.863281 -2.234375 1.753906 -2.265625 1.609375 -2.265625 C 1.472656 -2.265625 1.351562 -2.234375 1.25 -2.171875 C 1.15625 -2.117188 1.082031 -2.046875 1.03125 -1.953125 C 0.988281 -1.867188 0.96875 -1.769531 0.96875 -1.65625 L 0.96875 -0.3125 C 0.96875 -0.226562 0.9375 -0.15625 0.875 -0.09375 C 0.8125 -0.03125 0.738281 0 0.65625 0 C 0.5625 0 0.484375 -0.03125 0.421875 -0.09375 C 0.367188 -0.15625 0.34375 -0.226562 0.34375 -0.3125 L 0.34375 -2.46875 C 0.34375 -2.550781 0.367188 -2.625 0.421875 -2.6875 C 0.484375 -2.75 0.5625 -2.78125 0.65625 -2.78125 C 0.738281 -2.78125 0.8125 -2.75 0.875 -2.6875 C 0.9375 -2.625 0.96875 -2.550781 0.96875 -2.46875 L 0.96875 -2.25 L 0.890625 -2.265625 C 0.921875 -2.316406 0.960938 -2.375 1.015625 -2.4375 C 1.078125 -2.507812 1.144531 -2.570312 1.21875 -2.625 C 1.300781 -2.6875 1.394531 -2.734375 1.5 -2.765625 C 1.601562 -2.804688 1.710938 -2.828125 1.828125 -2.828125 Z M 1.828125 -2.828125 "/></g></g></g><g fill="#000000" fill-opacity="1"><g transform="translate(122.430961, 207.248693)"><g><path d="M 1.65625 0.046875 C 1.351562 0.046875 1.09375 -0.0078125 0.875 -0.125 C 0.664062 -0.25 0.5 -0.414062 0.375 -0.625 C 0.257812 -0.84375 0.203125 -1.085938 0.203125 -1.359375 C 0.203125 -1.671875 0.265625 -1.9375 0.390625 -2.15625 C 0.523438 -2.375 0.691406 -2.539062 0.890625 -2.65625 C 1.097656 -2.769531 1.316406 -2.828125 1.546875 -2.828125 C 1.722656 -2.828125 1.890625 -2.789062 2.046875 -2.71875 C 2.203125 -2.644531 2.335938 -2.546875 2.453125 -2.421875 C 2.578125 -2.296875 2.675781 -2.148438 2.75 -1.984375 C 2.820312 -1.816406 2.859375 -1.640625 2.859375 -1.453125 C 2.859375 -1.367188 2.828125 -1.300781 2.765625 -1.25 C 2.703125 -1.195312 2.628906 -1.171875 2.546875 -1.171875 L 0.5625 -1.171875 L 0.40625 -1.703125 L 2.3125 -1.703125 L 2.203125 -1.59375 L 2.203125 -1.734375 C 2.191406 -1.835938 2.15625 -1.925781 2.09375 -2 C 2.03125 -2.082031 1.945312 -2.144531 1.84375 -2.1875 C 1.75 -2.238281 1.648438 -2.265625 1.546875 -2.265625 C 1.441406 -2.265625 1.34375 -2.25 1.25 -2.21875 C 1.164062 -2.195312 1.085938 -2.148438 1.015625 -2.078125 C 0.953125 -2.015625 0.898438 -1.925781 0.859375 -1.8125 C 0.828125 -1.707031 0.8125 -1.566406 0.8125 -1.390625 C 0.8125 -1.203125 0.847656 -1.039062 0.921875 -0.90625 C 1.003906 -0.78125 1.101562 -0.679688 1.21875 -0.609375 C 1.34375 -0.546875 1.476562 -0.515625 1.625 -0.515625 C 1.75 -0.515625 1.847656 -0.523438 1.921875 -0.546875 C 2.003906 -0.566406 2.066406 -0.59375 2.109375 -0.625 C 2.160156 -0.65625 2.203125 -0.679688 2.234375 -0.703125 C 2.296875 -0.734375 2.359375 -0.75 2.421875 -0.75 C 2.492188 -0.75 2.550781 -0.722656 2.59375 -0.671875 C 2.644531 -0.617188 2.671875 -0.554688 2.671875 -0.484375 C 2.671875 -0.390625 2.625 -0.304688 2.53125 -0.234375 C 2.445312 -0.160156 2.320312 -0.09375 2.15625 -0.03125 C 1.988281 0.0195312 1.820312 0.046875 1.65625 0.046875 Z M 1.65625 0.046875 "/></g></g></g><g fill="#000000" fill-opacity="1"><g transform="translate(128.889392, 207.248693)"><g><path d="M 0.171875 -0.4375 C 0.140625 -0.476562 0.125 -0.535156 0.125 -0.609375 C 0.132812 -0.691406 0.179688 -0.757812 0.265625 -0.8125 C 0.316406 -0.851562 0.375 -0.867188 0.4375 -0.859375 C 0.5 -0.859375 0.5625 -0.828125 0.625 -0.765625 C 0.726562 -0.660156 0.832031 -0.582031 0.9375 -0.53125 C 1.050781 -0.476562 1.191406 -0.453125 1.359375 -0.453125 C 1.410156 -0.453125 1.46875 -0.457031 1.53125 -0.46875 C 1.59375 -0.476562 1.644531 -0.503906 1.6875 -0.546875 C 1.738281 -0.597656 1.765625 -0.664062 1.765625 -0.75 C 1.765625 -0.832031 1.738281 -0.894531 1.6875 -0.9375 C 1.632812 -0.976562 1.566406 -1.015625 1.484375 -1.046875 C 1.398438 -1.078125 1.304688 -1.109375 1.203125 -1.140625 C 1.085938 -1.171875 0.972656 -1.203125 0.859375 -1.234375 C 0.753906 -1.273438 0.65625 -1.328125 0.5625 -1.390625 C 0.46875 -1.453125 0.390625 -1.53125 0.328125 -1.625 C 0.265625 -1.726562 0.234375 -1.859375 0.234375 -2.015625 C 0.234375 -2.191406 0.28125 -2.335938 0.375 -2.453125 C 0.476562 -2.578125 0.609375 -2.671875 0.765625 -2.734375 C 0.921875 -2.796875 1.082031 -2.828125 1.25 -2.828125 C 1.351562 -2.828125 1.460938 -2.8125 1.578125 -2.78125 C 1.703125 -2.757812 1.816406 -2.71875 1.921875 -2.65625 C 2.035156 -2.601562 2.128906 -2.535156 2.203125 -2.453125 C 2.234375 -2.398438 2.253906 -2.335938 2.265625 -2.265625 C 2.273438 -2.191406 2.242188 -2.125 2.171875 -2.0625 C 2.117188 -2.019531 2.054688 -2 1.984375 -2 C 1.910156 -2.007812 1.851562 -2.035156 1.8125 -2.078125 C 1.75 -2.148438 1.664062 -2.207031 1.5625 -2.25 C 1.46875 -2.300781 1.359375 -2.328125 1.234375 -2.328125 C 1.179688 -2.328125 1.125 -2.320312 1.0625 -2.3125 C 1 -2.300781 0.945312 -2.273438 0.90625 -2.234375 C 0.863281 -2.191406 0.84375 -2.128906 0.84375 -2.046875 C 0.84375 -1.960938 0.867188 -1.894531 0.921875 -1.84375 C 0.972656 -1.800781 1.039062 -1.765625 1.125 -1.734375 C 1.21875 -1.703125 1.3125 -1.675781 1.40625 -1.65625 C 1.507812 -1.625 1.613281 -1.585938 1.71875 -1.546875 C 1.832031 -1.515625 1.929688 -1.46875 2.015625 -1.40625 C 2.109375 -1.34375 2.179688 -1.257812 2.234375 -1.15625 C 2.296875 -1.0625 2.328125 -0.9375 2.328125 -0.78125 C 2.328125 -0.601562 2.273438 -0.453125 2.171875 -0.328125 C 2.066406 -0.203125 1.9375 -0.109375 1.78125 -0.046875 C 1.625 0.015625 1.460938 0.046875 1.296875 0.046875 C 1.097656 0.046875 0.894531 0.015625 0.6875 -0.046875 C 0.476562 -0.117188 0.304688 -0.25 0.171875 -0.4375 Z M 0.171875 -0.4375 "/></g></g></g><g fill="#000000" fill-opacity="1"><g transform="translate(134.78622, 207.248693)"><g><path d="M 0.171875 -0.4375 C 0.140625 -0.476562 0.125 -0.535156 0.125 -0.609375 C 0.132812 -0.691406 0.179688 -0.757812 0.265625 -0.8125 C 0.316406 -0.851562 0.375 -0.867188 0.4375 -0.859375 C 0.5 -0.859375 0.5625 -0.828125 0.625 -0.765625 C 0.726562 -0.660156 0.832031 -0.582031 0.9375 -0.53125 C 1.050781 -0.476562 1.191406 -0.453125 1.359375 -0.453125 C 1.410156 -0.453125 1.46875 -0.457031 1.53125 -0.46875 C 1.59375 -0.476562 1.644531 -0.503906 1.6875 -0.546875 C 1.738281 -0.597656 1.765625 -0.664062 1.765625 -0.75 C 1.765625 -0.832031 1.738281 -0.894531 1.6875 -0.9375 C 1.632812 -0.976562 1.566406 -1.015625 1.484375 -1.046875 C 1.398438 -1.078125 1.304688 -1.109375 1.203125 -1.140625 C 1.085938 -1.171875 0.972656 -1.203125 0.859375 -1.234375 C 0.753906 -1.273438 0.65625 -1.328125 0.5625 -1.390625 C 0.46875 -1.453125 0.390625 -1.53125 0.328125 -1.625 C 0.265625 -1.726562 0.234375 -1.859375 0.234375 -2.015625 C 0.234375 -2.191406 0.28125 -2.335938 0.375 -2.453125 C 0.476562 -2.578125 0.609375 -2.671875 0.765625 -2.734375 C 0.921875 -2.796875 1.082031 -2.828125 1.25 -2.828125 C 1.351562 -2.828125 1.460938 -2.8125 1.578125 -2.78125 C 1.703125 -2.757812 1.816406 -2.71875 1.921875 -2.65625 C 2.035156 -2.601562 2.128906 -2.535156 2.203125 -2.453125 C 2.234375 -2.398438 2.253906 -2.335938 2.265625 -2.265625 C 2.273438 -2.191406 2.242188 -2.125 2.171875 -2.0625 C 2.117188 -2.019531 2.054688 -2 1.984375 -2 C 1.910156 -2.007812 1.851562 -2.035156 1.8125 -2.078125 C 1.75 -2.148438 1.664062 -2.207031 1.5625 -2.25 C 1.46875 -2.300781 1.359375 -2.328125 1.234375 -2.328125 C 1.179688 -2.328125 1.125 -2.320312 1.0625 -2.3125 C 1 -2.300781 0.945312 -2.273438 0.90625 -2.234375 C 0.863281 -2.191406 0.84375 -2.128906 0.84375 -2.046875 C 0.84375 -1.960938 0.867188 -1.894531 0.921875 -1.84375 C 0.972656 -1.800781 1.039062 -1.765625 1.125 -1.734375 C 1.21875 -1.703125 1.3125 -1.675781 1.40625 -1.65625 C 1.507812 -1.625 1.613281 -1.585938 1.71875 -1.546875 C 1.832031 -1.515625 1.929688 -1.46875 2.015625 -1.40625 C 2.109375 -1.34375 2.179688 -1.257812 2.234375 -1.15625 C 2.296875 -1.0625 2.328125 -0.9375 2.328125 -0.78125 C 2.328125 -0.601562 2.273438 -0.453125 2.171875 -0.328125 C 2.066406 -0.203125 1.9375 -0.109375 1.78125 -0.046875 C 1.625 0.015625 1.460938 0.046875 1.296875 0.046875 C 1.097656 0.046875 0.894531 0.015625 0.6875 -0.046875 C 0.476562 -0.117188 0.304688 -0.25 0.171875 -0.4375 Z M 0.171875 -0.4375 "/></g></g></g><g fill="#000000" fill-opacity="1"><g transform="translate(140.683048, 207.248693)"><g/></g></g><g fill="#000000" fill-opacity="1"><g transform="translate(145.52947, 207.248693)"><g><path d="M 1.796875 -2.828125 C 2.078125 -2.828125 2.28125 -2.757812 2.40625 -2.625 C 2.539062 -2.5 2.628906 -2.332031 2.671875 -2.125 L 2.578125 -2.171875 L 2.625 -2.25 C 2.664062 -2.332031 2.726562 -2.414062 2.8125 -2.5 C 2.90625 -2.59375 3.007812 -2.671875 3.125 -2.734375 C 3.25 -2.796875 3.390625 -2.828125 3.546875 -2.828125 C 3.796875 -2.828125 3.984375 -2.773438 4.109375 -2.671875 C 4.242188 -2.566406 4.332031 -2.425781 4.375 -2.25 C 4.425781 -2.070312 4.453125 -1.875 4.453125 -1.65625 L 4.453125 -0.3125 C 4.453125 -0.226562 4.421875 -0.15625 4.359375 -0.09375 C 4.304688 -0.03125 4.234375 0 4.140625 0 C 4.054688 0 3.984375 -0.03125 3.921875 -0.09375 C 3.859375 -0.15625 3.828125 -0.226562 3.828125 -0.3125 L 3.828125 -1.65625 C 3.828125 -1.769531 3.8125 -1.867188 3.78125 -1.953125 C 3.757812 -2.046875 3.710938 -2.117188 3.640625 -2.171875 C 3.566406 -2.234375 3.460938 -2.265625 3.328125 -2.265625 C 3.191406 -2.265625 3.078125 -2.234375 2.984375 -2.171875 C 2.890625 -2.117188 2.816406 -2.046875 2.765625 -1.953125 C 2.722656 -1.867188 2.703125 -1.769531 2.703125 -1.65625 L 2.703125 -0.3125 C 2.703125 -0.226562 2.671875 -0.15625 2.609375 -0.09375 C 2.554688 -0.03125 2.488281 0 2.40625 0 C 2.3125 0 2.234375 -0.03125 2.171875 -0.09375 C 2.117188 -0.15625 2.09375 -0.226562 2.09375 -0.3125 L 2.09375 -1.65625 C 2.09375 -1.769531 2.078125 -1.867188 2.046875 -1.953125 C 2.015625 -2.046875 1.960938 -2.117188 1.890625 -2.171875 C 1.816406 -2.234375 1.710938 -2.265625 1.578125 -2.265625 C 1.453125 -2.265625 1.34375 -2.234375 1.25 -2.171875 C 1.15625 -2.117188 1.082031 -2.046875 1.03125 -1.953125 C 0.988281 -1.867188 0.96875 -1.769531 0.96875 -1.65625 L 0.96875 -0.3125 C 0.96875 -0.226562 0.9375 -0.15625 0.875 -0.09375 C 0.8125 -0.03125 0.738281 0 0.65625 0 C 0.5625 0 0.484375 -0.03125 0.421875 -0.09375 C 0.367188 -0.15625 0.34375 -0.226562 0.34375 -0.3125 L 0.34375 -2.46875 C 0.34375 -2.550781 0.367188 -2.625 0.421875 -2.6875 C 0.484375 -2.75 0.5625 -2.78125 0.65625 -2.78125 C 0.738281 -2.78125 0.8125 -2.75 0.875 -2.6875 C 0.9375 -2.625 0.96875 -2.550781 0.96875 -2.46875 L 0.96875 -2.25 L 0.890625 -2.265625 C 0.921875 -2.316406 0.960938 -2.375 1.015625 -2.4375 C 1.066406 -2.507812 1.132812 -2.570312 1.21875 -2.625 C 1.300781 -2.6875 1.390625 -2.734375 1.484375 -2.765625 C 1.578125 -2.804688 1.679688 -2.828125 1.796875 -2.828125 Z M 1.796875 -2.828125 "/></g></g></g><g fill="#000000" fill-opacity="1"><g transform="translate(153.714318, 207.248693)"><g><path d="M 2.609375 -2.828125 C 2.703125 -2.828125 2.773438 -2.796875 2.828125 -2.734375 C 2.890625 -2.679688 2.921875 -2.609375 2.921875 -2.515625 L 2.921875 -0.3125 C 2.921875 -0.226562 2.890625 -0.15625 2.828125 -0.09375 C 2.773438 -0.03125 2.703125 0 2.609375 0 C 2.523438 0 2.453125 -0.03125 2.390625 -0.09375 C 2.335938 -0.15625 2.3125 -0.226562 2.3125 -0.3125 L 2.3125 -0.578125 L 2.421875 -0.53125 C 2.421875 -0.476562 2.394531 -0.421875 2.34375 -0.359375 C 2.300781 -0.296875 2.238281 -0.234375 2.15625 -0.171875 C 2.070312 -0.109375 1.972656 -0.0546875 1.859375 -0.015625 C 1.742188 0.0234375 1.617188 0.046875 1.484375 0.046875 C 1.242188 0.046875 1.023438 -0.0078125 0.828125 -0.125 C 0.640625 -0.25 0.488281 -0.421875 0.375 -0.640625 C 0.257812 -0.859375 0.203125 -1.109375 0.203125 -1.390625 C 0.203125 -1.671875 0.257812 -1.921875 0.375 -2.140625 C 0.488281 -2.359375 0.640625 -2.523438 0.828125 -2.640625 C 1.023438 -2.765625 1.238281 -2.828125 1.46875 -2.828125 C 1.613281 -2.828125 1.75 -2.804688 1.875 -2.765625 C 2 -2.722656 2.109375 -2.664062 2.203125 -2.59375 C 2.296875 -2.53125 2.367188 -2.460938 2.421875 -2.390625 C 2.472656 -2.316406 2.5 -2.253906 2.5 -2.203125 L 2.3125 -2.140625 L 2.3125 -2.515625 C 2.3125 -2.609375 2.335938 -2.679688 2.390625 -2.734375 C 2.453125 -2.796875 2.523438 -2.828125 2.609375 -2.828125 Z M 1.5625 -0.515625 C 1.71875 -0.515625 1.851562 -0.550781 1.96875 -0.625 C 2.082031 -0.707031 2.171875 -0.8125 2.234375 -0.9375 C 2.296875 -1.070312 2.328125 -1.222656 2.328125 -1.390625 C 2.328125 -1.554688 2.296875 -1.703125 2.234375 -1.828125 C 2.171875 -1.960938 2.082031 -2.066406 1.96875 -2.140625 C 1.851562 -2.222656 1.71875 -2.265625 1.5625 -2.265625 C 1.414062 -2.265625 1.285156 -2.222656 1.171875 -2.140625 C 1.054688 -2.066406 0.96875 -1.960938 0.90625 -1.828125 C 0.84375 -1.703125 0.8125 -1.554688 0.8125 -1.390625 C 0.8125 -1.222656 0.84375 -1.070312 0.90625 -0.9375 C 0.96875 -0.8125 1.054688 -0.707031 1.171875 -0.625 C 1.285156 -0.550781 1.414062 -0.515625 1.5625 -0.515625 Z M 1.5625 -0.515625 "/></g></g></g><g fill="#000000" fill-opacity="1"><g transform="translate(160.370357, 207.248693)"><g><path d="M 1.828125 -2.828125 C 2.085938 -2.828125 2.28125 -2.773438 2.40625 -2.671875 C 2.539062 -2.566406 2.632812 -2.425781 2.6875 -2.25 C 2.738281 -2.070312 2.765625 -1.875 2.765625 -1.65625 L 2.765625 -0.3125 C 2.765625 -0.226562 2.734375 -0.15625 2.671875 -0.09375 C 2.609375 -0.03125 2.535156 0 2.453125 0 C 2.359375 0 2.28125 -0.03125 2.21875 -0.09375 C 2.164062 -0.15625 2.140625 -0.226562 2.140625 -0.3125 L 2.140625 -1.65625 C 2.140625 -1.769531 2.125 -1.867188 2.09375 -1.953125 C 2.0625 -2.046875 2.007812 -2.117188 1.9375 -2.171875 C 1.863281 -2.234375 1.753906 -2.265625 1.609375 -2.265625 C 1.472656 -2.265625 1.351562 -2.234375 1.25 -2.171875 C 1.15625 -2.117188 1.082031 -2.046875 1.03125 -1.953125 C 0.988281 -1.867188 0.96875 -1.769531 0.96875 -1.65625 L 0.96875 -0.3125 C 0.96875 -0.226562 0.9375 -0.15625 0.875 -0.09375 C 0.8125 -0.03125 0.738281 0 0.65625 0 C 0.5625 0 0.484375 -0.03125 0.421875 -0.09375 C 0.367188 -0.15625 0.34375 -0.226562 0.34375 -0.3125 L 0.34375 -2.46875 C 0.34375 -2.550781 0.367188 -2.625 0.421875 -2.6875 C 0.484375 -2.75 0.5625 -2.78125 0.65625 -2.78125 C 0.738281 -2.78125 0.8125 -2.75 0.875 -2.6875 C 0.9375 -2.625 0.96875 -2.550781 0.96875 -2.46875 L 0.96875 -2.25 L 0.890625 -2.265625 C 0.921875 -2.316406 0.960938 -2.375 1.015625 -2.4375 C 1.078125 -2.507812 1.144531 -2.570312 1.21875 -2.625 C 1.300781 -2.6875 1.394531 -2.734375 1.5 -2.765625 C 1.601562 -2.804688 1.710938 -2.828125 1.828125 -2.828125 Z M 1.828125 -2.828125 "/></g></g></g><g fill="#000000" fill-opacity="1"><g transform="translate(166.859995, 207.248693)"><g><path d="M 2.609375 -2.828125 C 2.703125 -2.828125 2.773438 -2.796875 2.828125 -2.734375 C 2.890625 -2.679688 2.921875 -2.609375 2.921875 -2.515625 L 2.921875 -0.3125 C 2.921875 -0.226562 2.890625 -0.15625 2.828125 -0.09375 C 2.773438 -0.03125 2.703125 0 2.609375 0 C 2.523438 0 2.453125 -0.03125 2.390625 -0.09375 C 2.335938 -0.15625 2.3125 -0.226562 2.3125 -0.3125 L 2.3125 -0.578125 L 2.421875 -0.53125 C 2.421875 -0.476562 2.394531 -0.421875 2.34375 -0.359375 C 2.300781 -0.296875 2.238281 -0.234375 2.15625 -0.171875 C 2.070312 -0.109375 1.972656 -0.0546875 1.859375 -0.015625 C 1.742188 0.0234375 1.617188 0.046875 1.484375 0.046875 C 1.242188 0.046875 1.023438 -0.0078125 0.828125 -0.125 C 0.640625 -0.25 0.488281 -0.421875 0.375 -0.640625 C 0.257812 -0.859375 0.203125 -1.109375 0.203125 -1.390625 C 0.203125 -1.671875 0.257812 -1.921875 0.375 -2.140625 C 0.488281 -2.359375 0.640625 -2.523438 0.828125 -2.640625 C 1.023438 -2.765625 1.238281 -2.828125 1.46875 -2.828125 C 1.613281 -2.828125 1.75 -2.804688 1.875 -2.765625 C 2 -2.722656 2.109375 -2.664062 2.203125 -2.59375 C 2.296875 -2.53125 2.367188 -2.460938 2.421875 -2.390625 C 2.472656 -2.316406 2.5 -2.253906 2.5 -2.203125 L 2.3125 -2.140625 L 2.3125 -2.515625 C 2.3125 -2.609375 2.335938 -2.679688 2.390625 -2.734375 C 2.453125 -2.796875 2.523438 -2.828125 2.609375 -2.828125 Z M 1.5625 -0.515625 C 1.71875 -0.515625 1.851562 -0.550781 1.96875 -0.625 C 2.082031 -0.707031 2.171875 -0.8125 2.234375 -0.9375 C 2.296875 -1.070312 2.328125 -1.222656 2.328125 -1.390625 C 2.328125 -1.554688 2.296875 -1.703125 2.234375 -1.828125 C 2.171875 -1.960938 2.082031 -2.066406 1.96875 -2.140625 C 1.851562 -2.222656 1.71875 -2.265625 1.5625 -2.265625 C 1.414062 -2.265625 1.285156 -2.222656 1.171875 -2.140625 C 1.054688 -2.066406 0.96875 -1.960938 0.90625 -1.828125 C 0.84375 -1.703125 0.8125 -1.554688 0.8125 -1.390625 C 0.8125 -1.222656 0.84375 -1.070312 0.90625 -0.9375 C 0.96875 -0.8125 1.054688 -0.707031 1.171875 -0.625 C 1.285156 -0.550781 1.414062 -0.515625 1.5625 -0.515625 Z M 1.5625 -0.515625 "/></g></g></g><g fill="#000000" fill-opacity="1"><g transform="translate(173.516034, 207.248693)"><g><path d="M 1.5 -2.828125 C 1.644531 -2.828125 1.773438 -2.804688 1.890625 -2.765625 C 2.015625 -2.722656 2.117188 -2.664062 2.203125 -2.59375 C 2.296875 -2.53125 2.367188 -2.460938 2.421875 -2.390625 C 2.472656 -2.316406 2.5 -2.253906 2.5 -2.203125 L 2.359375 -2.140625 L 2.359375 -2.515625 C 2.359375 -2.609375 2.382812 -2.679688 2.4375 -2.734375 C 2.5 -2.796875 2.578125 -2.828125 2.671875 -2.828125 C 2.753906 -2.828125 2.828125 -2.796875 2.890625 -2.734375 C 2.953125 -2.679688 2.984375 -2.609375 2.984375 -2.515625 L 2.984375 -0.203125 C 2.984375 0.0976562 2.914062 0.335938 2.78125 0.515625 C 2.65625 0.703125 2.484375 0.835938 2.265625 0.921875 C 2.054688 1.003906 1.832031 1.046875 1.59375 1.046875 C 1.519531 1.046875 1.425781 1.035156 1.3125 1.015625 C 1.207031 0.992188 1.101562 0.972656 1 0.953125 C 0.90625 0.929688 0.832031 0.910156 0.78125 0.890625 C 0.675781 0.835938 0.601562 0.773438 0.5625 0.703125 C 0.519531 0.640625 0.507812 0.570312 0.53125 0.5 C 0.5625 0.394531 0.613281 0.320312 0.6875 0.28125 C 0.757812 0.25 0.832031 0.25 0.90625 0.28125 C 0.9375 0.289062 0.992188 0.3125 1.078125 0.34375 C 1.160156 0.375 1.25 0.398438 1.34375 0.421875 C 1.4375 0.453125 1.519531 0.46875 1.59375 0.46875 C 1.851562 0.46875 2.046875 0.414062 2.171875 0.3125 C 2.296875 0.207031 2.359375 0.0625 2.359375 -0.125 L 2.359375 -0.578125 L 2.421875 -0.53125 C 2.421875 -0.476562 2.394531 -0.421875 2.34375 -0.359375 C 2.300781 -0.296875 2.238281 -0.234375 2.15625 -0.171875 C 2.070312 -0.109375 1.972656 -0.0546875 1.859375 -0.015625 C 1.753906 0.0234375 1.640625 0.046875 1.515625 0.046875 C 1.265625 0.046875 1.039062 -0.0078125 0.84375 -0.125 C 0.644531 -0.25 0.488281 -0.421875 0.375 -0.640625 C 0.257812 -0.859375 0.203125 -1.109375 0.203125 -1.390625 C 0.203125 -1.671875 0.257812 -1.921875 0.375 -2.140625 C 0.488281 -2.359375 0.644531 -2.523438 0.84375 -2.640625 C 1.039062 -2.765625 1.257812 -2.828125 1.5 -2.828125 Z M 1.59375 -2.265625 C 1.4375 -2.265625 1.296875 -2.222656 1.171875 -2.140625 C 1.054688 -2.066406 0.96875 -1.960938 0.90625 -1.828125 C 0.84375 -1.703125 0.8125 -1.554688 0.8125 -1.390625 C 0.8125 -1.222656 0.84375 -1.070312 0.90625 -0.9375 C 0.96875 -0.8125 1.054688 -0.707031 1.171875 -0.625 C 1.296875 -0.550781 1.4375 -0.515625 1.59375 -0.515625 C 1.75 -0.515625 1.882812 -0.550781 2 -0.625 C 2.125 -0.707031 2.21875 -0.8125 2.28125 -0.9375 C 2.351562 -1.070312 2.390625 -1.222656 2.390625 -1.390625 C 2.390625 -1.554688 2.351562 -1.703125 2.28125 -1.828125 C 2.21875 -1.960938 2.125 -2.066406 2 -2.140625 C 1.882812 -2.222656 1.75 -2.265625 1.59375 -2.265625 Z M 1.59375 -2.265625 "/></g></g></g><g fill="#000000" fill-opacity="1"><g transform="translate(180.224071, 207.248693)"><g><path d="M 1.65625 0.046875 C 1.351562 0.046875 1.09375 -0.0078125 0.875 -0.125 C 0.664062 -0.25 0.5 -0.414062 0.375 -0.625 C 0.257812 -0.84375 0.203125 -1.085938 0.203125 -1.359375 C 0.203125 -1.671875 0.265625 -1.9375 0.390625 -2.15625 C 0.523438 -2.375 0.691406 -2.539062 0.890625 -2.65625 C 1.097656 -2.769531 1.316406 -2.828125 1.546875 -2.828125 C 1.722656 -2.828125 1.890625 -2.789062 2.046875 -2.71875 C 2.203125 -2.644531 2.335938 -2.546875 2.453125 -2.421875 C 2.578125 -2.296875 2.675781 -2.148438 2.75 -1.984375 C 2.820312 -1.816406 2.859375 -1.640625 2.859375 -1.453125 C 2.859375 -1.367188 2.828125 -1.300781 2.765625 -1.25 C 2.703125 -1.195312 2.628906 -1.171875 2.546875 -1.171875 L 0.5625 -1.171875 L 0.40625 -1.703125 L 2.3125 -1.703125 L 2.203125 -1.59375 L 2.203125 -1.734375 C 2.191406 -1.835938 2.15625 -1.925781 2.09375 -2 C 2.03125 -2.082031 1.945312 -2.144531 1.84375 -2.1875 C 1.75 -2.238281 1.648438 -2.265625 1.546875 -2.265625 C 1.441406 -2.265625 1.34375 -2.25 1.25 -2.21875 C 1.164062 -2.195312 1.085938 -2.148438 1.015625 -2.078125 C 0.953125 -2.015625 0.898438 -1.925781 0.859375 -1.8125 C 0.828125 -1.707031 0.8125 -1.566406 0.8125 -1.390625 C 0.8125 -1.203125 0.847656 -1.039062 0.921875 -0.90625 C 1.003906 -0.78125 1.101562 -0.679688 1.21875 -0.609375 C 1.34375 -0.546875 1.476562 -0.515625 1.625 -0.515625 C 1.75 -0.515625 1.847656 -0.523438 1.921875 -0.546875 C 2.003906 -0.566406 2.066406 -0.59375 2.109375 -0.625 C 2.160156 -0.65625 2.203125 -0.679688 2.234375 -0.703125 C 2.296875 -0.734375 2.359375 -0.75 2.421875 -0.75 C 2.492188 -0.75 2.550781 -0.722656 2.59375 -0.671875 C 2.644531 -0.617188 2.671875 -0.554688 2.671875 -0.484375 C 2.671875 -0.390625 2.625 -0.304688 2.53125 -0.234375 C 2.445312 -0.160156 2.320312 -0.09375 2.15625 -0.03125 C 1.988281 0.0195312 1.820312 0.046875 1.65625 0.046875 Z M 1.65625 0.046875 "/></g></g></g><g fill="#000000" fill-opacity="1"><g transform="translate(186.682505, 207.248693)"><g><path d="M 1.796875 -2.828125 C 2.078125 -2.828125 2.28125 -2.757812 2.40625 -2.625 C 2.539062 -2.5 2.628906 -2.332031 2.671875 -2.125 L 2.578125 -2.171875 L 2.625 -2.25 C 2.664062 -2.332031 2.726562 -2.414062 2.8125 -2.5 C 2.90625 -2.59375 3.007812 -2.671875 3.125 -2.734375 C 3.25 -2.796875 3.390625 -2.828125 3.546875 -2.828125 C 3.796875 -2.828125 3.984375 -2.773438 4.109375 -2.671875 C 4.242188 -2.566406 4.332031 -2.425781 4.375 -2.25 C 4.425781 -2.070312 4.453125 -1.875 4.453125 -1.65625 L 4.453125 -0.3125 C 4.453125 -0.226562 4.421875 -0.15625 4.359375 -0.09375 C 4.304688 -0.03125 4.234375 0 4.140625 0 C 4.054688 0 3.984375 -0.03125 3.921875 -0.09375 C 3.859375 -0.15625 3.828125 -0.226562 3.828125 -0.3125 L 3.828125 -1.65625 C 3.828125 -1.769531 3.8125 -1.867188 3.78125 -1.953125 C 3.757812 -2.046875 3.710938 -2.117188 3.640625 -2.171875 C 3.566406 -2.234375 3.460938 -2.265625 3.328125 -2.265625 C 3.191406 -2.265625 3.078125 -2.234375 2.984375 -2.171875 C 2.890625 -2.117188 2.816406 -2.046875 2.765625 -1.953125 C 2.722656 -1.867188 2.703125 -1.769531 2.703125 -1.65625 L 2.703125 -0.3125 C 2.703125 -0.226562 2.671875 -0.15625 2.609375 -0.09375 C 2.554688 -0.03125 2.488281 0 2.40625 0 C 2.3125 0 2.234375 -0.03125 2.171875 -0.09375 C 2.117188 -0.15625 2.09375 -0.226562 2.09375 -0.3125 L 2.09375 -1.65625 C 2.09375 -1.769531 2.078125 -1.867188 2.046875 -1.953125 C 2.015625 -2.046875 1.960938 -2.117188 1.890625 -2.171875 C 1.816406 -2.234375 1.710938 -2.265625 1.578125 -2.265625 C 1.453125 -2.265625 1.34375 -2.234375 1.25 -2.171875 C 1.15625 -2.117188 1.082031 -2.046875 1.03125 -1.953125 C 0.988281 -1.867188 0.96875 -1.769531 0.96875 -1.65625 L 0.96875 -0.3125 C 0.96875 -0.226562 0.9375 -0.15625 0.875 -0.09375 C 0.8125 -0.03125 0.738281 0 0.65625 0 C 0.5625 0 0.484375 -0.03125 0.421875 -0.09375 C 0.367188 -0.15625 0.34375 -0.226562 0.34375 -0.3125 L 0.34375 -2.46875 C 0.34375 -2.550781 0.367188 -2.625 0.421875 -2.6875 C 0.484375 -2.75 0.5625 -2.78125 0.65625 -2.78125 C 0.738281 -2.78125 0.8125 -2.75 0.875 -2.6875 C 0.9375 -2.625 0.96875 -2.550781 0.96875 -2.46875 L 0.96875 -2.25 L 0.890625 -2.265625 C 0.921875 -2.316406 0.960938 -2.375 1.015625 -2.4375 C 1.066406 -2.507812 1.132812 -2.570312 1.21875 -2.625 C 1.300781 -2.6875 1.390625 -2.734375 1.484375 -2.765625 C 1.578125 -2.804688 1.679688 -2.828125 1.796875 -2.828125 Z M 1.796875 -2.828125 "/></g></g></g><g fill="#000000" fill-opacity="1"><g transform="translate(194.867354, 207.248693)"><g><path d="M 1.65625 0.046875 C 1.351562 0.046875 1.09375 -0.0078125 0.875 -0.125 C 0.664062 -0.25 0.5 -0.414062 0.375 -0.625 C 0.257812 -0.84375 0.203125 -1.085938 0.203125 -1.359375 C 0.203125 -1.671875 0.265625 -1.9375 0.390625 -2.15625 C 0.523438 -2.375 0.691406 -2.539062 0.890625 -2.65625 C 1.097656 -2.769531 1.316406 -2.828125 1.546875 -2.828125 C 1.722656 -2.828125 1.890625 -2.789062 2.046875 -2.71875 C 2.203125 -2.644531 2.335938 -2.546875 2.453125 -2.421875 C 2.578125 -2.296875 2.675781 -2.148438 2.75 -1.984375 C 2.820312 -1.816406 2.859375 -1.640625 2.859375 -1.453125 C 2.859375 -1.367188 2.828125 -1.300781 2.765625 -1.25 C 2.703125 -1.195312 2.628906 -1.171875 2.546875 -1.171875 L 0.5625 -1.171875 L 0.40625 -1.703125 L 2.3125 -1.703125 L 2.203125 -1.59375 L 2.203125 -1.734375 C 2.191406 -1.835938 2.15625 -1.925781 2.09375 -2 C 2.03125 -2.082031 1.945312 -2.144531 1.84375 -2.1875 C 1.75 -2.238281 1.648438 -2.265625 1.546875 -2.265625 C 1.441406 -2.265625 1.34375 -2.25 1.25 -2.21875 C 1.164062 -2.195312 1.085938 -2.148438 1.015625 -2.078125 C 0.953125 -2.015625 0.898438 -1.925781 0.859375 -1.8125 C 0.828125 -1.707031 0.8125 -1.566406 0.8125 -1.390625 C 0.8125 -1.203125 0.847656 -1.039062 0.921875 -0.90625 C 1.003906 -0.78125 1.101562 -0.679688 1.21875 -0.609375 C 1.34375 -0.546875 1.476562 -0.515625 1.625 -0.515625 C 1.75 -0.515625 1.847656 -0.523438 1.921875 -0.546875 C 2.003906 -0.566406 2.066406 -0.59375 2.109375 -0.625 C 2.160156 -0.65625 2.203125 -0.679688 2.234375 -0.703125 C 2.296875 -0.734375 2.359375 -0.75 2.421875 -0.75 C 2.492188 -0.75 2.550781 -0.722656 2.59375 -0.671875 C 2.644531 -0.617188 2.671875 -0.554688 2.671875 -0.484375 C 2.671875 -0.390625 2.625 -0.304688 2.53125 -0.234375 C 2.445312 -0.160156 2.320312 -0.09375 2.15625 -0.03125 C 1.988281 0.0195312 1.820312 0.046875 1.65625 0.046875 Z M 1.65625 0.046875 "/></g></g></g><g fill="#000000" fill-opacity="1"><g transform="translate(201.325788, 207.248693)"><g><path d="M 1.828125 -2.828125 C 2.085938 -2.828125 2.28125 -2.773438 2.40625 -2.671875 C 2.539062 -2.566406 2.632812 -2.425781 2.6875 -2.25 C 2.738281 -2.070312 2.765625 -1.875 2.765625 -1.65625 L 2.765625 -0.3125 C 2.765625 -0.226562 2.734375 -0.15625 2.671875 -0.09375 C 2.609375 -0.03125 2.535156 0 2.453125 0 C 2.359375 0 2.28125 -0.03125 2.21875 -0.09375 C 2.164062 -0.15625 2.140625 -0.226562 2.140625 -0.3125 L 2.140625 -1.65625 C 2.140625 -1.769531 2.125 -1.867188 2.09375 -1.953125 C 2.0625 -2.046875 2.007812 -2.117188 1.9375 -2.171875 C 1.863281 -2.234375 1.753906 -2.265625 1.609375 -2.265625 C 1.472656 -2.265625 1.351562 -2.234375 1.25 -2.171875 C 1.15625 -2.117188 1.082031 -2.046875 1.03125 -1.953125 C 0.988281 -1.867188 0.96875 -1.769531 0.96875 -1.65625 L 0.96875 -0.3125 C 0.96875 -0.226562 0.9375 -0.15625 0.875 -0.09375 C 0.8125 -0.03125 0.738281 0 0.65625 0 C 0.5625 0 0.484375 -0.03125 0.421875 -0.09375 C 0.367188 -0.15625 0.34375 -0.226562 0.34375 -0.3125 L 0.34375 -2.46875 C 0.34375 -2.550781 0.367188 -2.625 0.421875 -2.6875 C 0.484375 -2.75 0.5625 -2.78125 0.65625 -2.78125 C 0.738281 -2.78125 0.8125 -2.75 0.875 -2.6875 C 0.9375 -2.625 0.96875 -2.550781 0.96875 -2.46875 L 0.96875 -2.25 L 0.890625 -2.265625 C 0.921875 -2.316406 0.960938 -2.375 1.015625 -2.4375 C 1.078125 -2.507812 1.144531 -2.570312 1.21875 -2.625 C 1.300781 -2.6875 1.394531 -2.734375 1.5 -2.765625 C 1.601562 -2.804688 1.710938 -2.828125 1.828125 -2.828125 Z M 1.828125 -2.828125 "/></g></g></g><g fill="#000000" fill-opacity="1"><g transform="translate(207.815419, 207.248693)"><g><path d="M 0.375 -2.734375 L 1.609375 -2.734375 C 1.691406 -2.734375 1.757812 -2.703125 1.8125 -2.640625 C 1.863281 -2.585938 1.890625 -2.519531 1.890625 -2.4375 C 1.890625 -2.363281 1.863281 -2.296875 1.8125 -2.234375 C 1.757812 -2.179688 1.691406 -2.15625 1.609375 -2.15625 L 0.375 -2.15625 C 0.289062 -2.15625 0.21875 -2.179688 0.15625 -2.234375 C 0.101562 -2.296875 0.078125 -2.367188 0.078125 -2.453125 C 0.078125 -2.523438 0.101562 -2.585938 0.15625 -2.640625 C 0.21875 -2.703125 0.289062 -2.734375 0.375 -2.734375 Z M 0.921875 -3.375 C 1.015625 -3.375 1.085938 -3.34375 1.140625 -3.28125 C 1.203125 -3.226562 1.234375 -3.15625 1.234375 -3.0625 L 1.234375 -0.75 C 1.234375 -0.695312 1.242188 -0.65625 1.265625 -0.625 C 1.285156 -0.59375 1.3125 -0.570312 1.34375 -0.5625 C 1.375 -0.550781 1.410156 -0.546875 1.453125 -0.546875 C 1.492188 -0.546875 1.53125 -0.550781 1.5625 -0.5625 C 1.59375 -0.582031 1.632812 -0.59375 1.6875 -0.59375 C 1.726562 -0.59375 1.769531 -0.566406 1.8125 -0.515625 C 1.851562 -0.472656 1.875 -0.410156 1.875 -0.328125 C 1.875 -0.234375 1.820312 -0.15625 1.71875 -0.09375 C 1.613281 -0.03125 1.5 0 1.375 0 C 1.300781 0 1.21875 -0.00390625 1.125 -0.015625 C 1.039062 -0.0234375 0.957031 -0.0507812 0.875 -0.09375 C 0.800781 -0.144531 0.738281 -0.21875 0.6875 -0.3125 C 0.632812 -0.414062 0.609375 -0.550781 0.609375 -0.71875 L 0.609375 -3.0625 C 0.609375 -3.15625 0.640625 -3.226562 0.703125 -3.28125 C 0.765625 -3.34375 0.835938 -3.375 0.921875 -3.375 Z M 0.921875 -3.375 "/></g></g></g><g fill="#000000" fill-opacity="1"><g transform="translate(213.33264, 207.248693)"><g/></g></g><g fill="#000000" fill-opacity="1"><g transform="translate(218.179058, 207.248693)"><g><path d="M 1.453125 0.046875 C 1.203125 0.046875 0.976562 -0.00390625 0.78125 -0.109375 C 0.59375 -0.210938 0.441406 -0.351562 0.328125 -0.53125 C 0.210938 -0.707031 0.15625 -0.894531 0.15625 -1.09375 C 0.15625 -1.257812 0.1875 -1.414062 0.25 -1.5625 C 0.3125 -1.707031 0.398438 -1.832031 0.515625 -1.9375 C 0.640625 -2.050781 0.800781 -2.148438 1 -2.234375 L 1.40625 -1.8125 C 1.15625 -1.757812 0.988281 -1.675781 0.90625 -1.5625 C 0.832031 -1.457031 0.796875 -1.332031 0.796875 -1.1875 C 0.796875 -1.082031 0.820312 -0.976562 0.875 -0.875 C 0.925781 -0.78125 1.007812 -0.695312 1.125 -0.625 C 1.238281 -0.5625 1.394531 -0.53125 1.59375 -0.53125 C 1.757812 -0.53125 1.90625 -0.566406 2.03125 -0.640625 C 2.164062 -0.722656 2.28125 -0.820312 2.375 -0.9375 C 2.46875 -1.0625 2.546875 -1.195312 2.609375 -1.34375 C 2.671875 -1.5 2.710938 -1.65625 2.734375 -1.8125 C 2.734375 -1.875 2.75 -1.921875 2.78125 -1.953125 C 2.820312 -1.984375 2.890625 -2 2.984375 -2 C 3.066406 -2 3.132812 -1.960938 3.1875 -1.890625 C 3.238281 -1.816406 3.257812 -1.726562 3.25 -1.625 C 3.21875 -1.414062 3.15625 -1.210938 3.0625 -1.015625 C 2.976562 -0.816406 2.863281 -0.632812 2.71875 -0.46875 C 2.570312 -0.3125 2.394531 -0.1875 2.1875 -0.09375 C 1.976562 0 1.734375 0.046875 1.453125 0.046875 Z M 3.296875 0.015625 C 3.253906 0.015625 3.21875 0.0078125 3.1875 0 C 3.164062 -0.0078125 3.144531 -0.0234375 3.125 -0.046875 C 2.875 -0.253906 2.644531 -0.445312 2.4375 -0.625 C 2.238281 -0.8125 2.050781 -0.988281 1.875 -1.15625 C 1.695312 -1.320312 1.535156 -1.492188 1.390625 -1.671875 C 1.265625 -1.804688 1.148438 -1.929688 1.046875 -2.046875 C 0.953125 -2.160156 0.875 -2.269531 0.8125 -2.375 C 0.75 -2.476562 0.71875 -2.59375 0.71875 -2.71875 C 0.71875 -2.882812 0.765625 -3.039062 0.859375 -3.1875 C 0.953125 -3.34375 1.082031 -3.460938 1.25 -3.546875 C 1.414062 -3.640625 1.617188 -3.6875 1.859375 -3.6875 C 2.097656 -3.6875 2.3125 -3.644531 2.5 -3.5625 C 2.6875 -3.488281 2.816406 -3.382812 2.890625 -3.25 C 2.890625 -3.25 2.894531 -3.226562 2.90625 -3.1875 C 2.925781 -3.144531 2.9375 -3.097656 2.9375 -3.046875 C 2.9375 -2.984375 2.910156 -2.925781 2.859375 -2.875 C 2.804688 -2.832031 2.738281 -2.8125 2.65625 -2.8125 C 2.601562 -2.8125 2.5625 -2.820312 2.53125 -2.84375 C 2.5 -2.863281 2.476562 -2.882812 2.46875 -2.90625 C 2.382812 -3 2.289062 -3.066406 2.1875 -3.109375 C 2.09375 -3.148438 1.984375 -3.171875 1.859375 -3.171875 C 1.703125 -3.171875 1.582031 -3.128906 1.5 -3.046875 C 1.414062 -2.960938 1.375 -2.863281 1.375 -2.75 C 1.375 -2.644531 1.410156 -2.539062 1.484375 -2.4375 C 1.566406 -2.332031 1.65625 -2.234375 1.75 -2.140625 C 1.851562 -2.046875 1.9375 -1.960938 2 -1.890625 C 2.101562 -1.773438 2.222656 -1.648438 2.359375 -1.515625 C 2.492188 -1.390625 2.628906 -1.265625 2.765625 -1.140625 C 2.898438 -1.015625 3.023438 -0.898438 3.140625 -0.796875 C 3.253906 -0.691406 3.347656 -0.601562 3.421875 -0.53125 C 3.460938 -0.488281 3.492188 -0.445312 3.515625 -0.40625 C 3.546875 -0.363281 3.5625 -0.3125 3.5625 -0.25 C 3.5625 -0.207031 3.539062 -0.148438 3.5 -0.078125 C 3.457031 -0.015625 3.390625 0.015625 3.296875 0.015625 Z M 3.296875 0.015625 "/></g></g></g><g fill="#000000" fill-opacity="1"><g transform="translate(225.256298, 207.248693)"><g/></g></g><g fill="#000000" fill-opacity="1"><g transform="translate(230.102716, 207.248693)"><g><path d="M 1.046875 -0.3125 C 1.046875 -0.226562 1.007812 -0.15625 0.9375 -0.09375 C 0.875 -0.03125 0.800781 0 0.71875 0 C 0.613281 0 0.53125 -0.03125 0.46875 -0.09375 C 0.414062 -0.15625 0.390625 -0.226562 0.390625 -0.3125 L 0.390625 -3.328125 C 0.390625 -3.410156 0.421875 -3.484375 0.484375 -3.546875 C 0.546875 -3.609375 0.625 -3.640625 0.71875 -3.640625 C 0.800781 -3.640625 0.875 -3.609375 0.9375 -3.546875 C 1.007812 -3.484375 1.046875 -3.410156 1.046875 -3.328125 Z M 1.046875 -0.3125 "/></g></g></g><g fill="#000000" fill-opacity="1"><g transform="translate(234.923135, 207.248693)"><g><path d="M 1.828125 -2.828125 C 2.085938 -2.828125 2.28125 -2.773438 2.40625 -2.671875 C 2.539062 -2.566406 2.632812 -2.425781 2.6875 -2.25 C 2.738281 -2.070312 2.765625 -1.875 2.765625 -1.65625 L 2.765625 -0.3125 C 2.765625 -0.226562 2.734375 -0.15625 2.671875 -0.09375 C 2.609375 -0.03125 2.535156 0 2.453125 0 C 2.359375 0 2.28125 -0.03125 2.21875 -0.09375 C 2.164062 -0.15625 2.140625 -0.226562 2.140625 -0.3125 L 2.140625 -1.65625 C 2.140625 -1.769531 2.125 -1.867188 2.09375 -1.953125 C 2.0625 -2.046875 2.007812 -2.117188 1.9375 -2.171875 C 1.863281 -2.234375 1.753906 -2.265625 1.609375 -2.265625 C 1.472656 -2.265625 1.351562 -2.234375 1.25 -2.171875 C 1.15625 -2.117188 1.082031 -2.046875 1.03125 -1.953125 C 0.988281 -1.867188 0.96875 -1.769531 0.96875 -1.65625 L 0.96875 -0.3125 C 0.96875 -0.226562 0.9375 -0.15625 0.875 -0.09375 C 0.8125 -0.03125 0.738281 0 0.65625 0 C 0.5625 0 0.484375 -0.03125 0.421875 -0.09375 C 0.367188 -0.15625 0.34375 -0.226562 0.34375 -0.3125 L 0.34375 -2.46875 C 0.34375 -2.550781 0.367188 -2.625 0.421875 -2.6875 C 0.484375 -2.75 0.5625 -2.78125 0.65625 -2.78125 C 0.738281 -2.78125 0.8125 -2.75 0.875 -2.6875 C 0.9375 -2.625 0.96875 -2.550781 0.96875 -2.46875 L 0.96875 -2.25 L 0.890625 -2.265625 C 0.921875 -2.316406 0.960938 -2.375 1.015625 -2.4375 C 1.078125 -2.507812 1.144531 -2.570312 1.21875 -2.625 C 1.300781 -2.6875 1.394531 -2.734375 1.5 -2.765625 C 1.601562 -2.804688 1.710938 -2.828125 1.828125 -2.828125 Z M 1.828125 -2.828125 "/></g></g></g><g fill="#000000" fill-opacity="1"><g transform="translate(241.412766, 207.248693)"><g><path d="M 0.46875 -2.78125 C 0.53125 -2.78125 0.585938 -2.765625 0.640625 -2.734375 C 0.703125 -2.703125 0.742188 -2.648438 0.765625 -2.578125 L 1.53125 -0.84375 L 1.421875 -0.78125 L 2.203125 -2.578125 C 2.265625 -2.710938 2.359375 -2.78125 2.484375 -2.78125 C 2.566406 -2.78125 2.632812 -2.75 2.6875 -2.6875 C 2.738281 -2.632812 2.765625 -2.570312 2.765625 -2.5 C 2.765625 -2.476562 2.757812 -2.453125 2.75 -2.421875 C 2.738281 -2.390625 2.726562 -2.363281 2.71875 -2.34375 L 1.75 -0.203125 C 1.695312 -0.078125 1.609375 -0.0078125 1.484375 0 C 1.421875 0.0078125 1.359375 0 1.296875 -0.03125 C 1.234375 -0.0703125 1.1875 -0.128906 1.15625 -0.203125 L 0.1875 -2.34375 C 0.1875 -2.363281 0.179688 -2.382812 0.171875 -2.40625 C 0.160156 -2.4375 0.15625 -2.472656 0.15625 -2.515625 C 0.15625 -2.566406 0.179688 -2.625 0.234375 -2.6875 C 0.296875 -2.75 0.375 -2.78125 0.46875 -2.78125 Z M 0.46875 -2.78125 "/></g></g></g><g fill="#000000" fill-opacity="1"><g transform="translate(247.725601, 207.248693)"><g><path d="M 3.03125 -1.390625 C 3.03125 -1.109375 2.96875 -0.859375 2.84375 -0.640625 C 2.71875 -0.421875 2.546875 -0.25 2.328125 -0.125 C 2.117188 -0.0078125 1.882812 0.046875 1.625 0.046875 C 1.363281 0.046875 1.125 -0.0078125 0.90625 -0.125 C 0.695312 -0.25 0.523438 -0.421875 0.390625 -0.640625 C 0.265625 -0.859375 0.203125 -1.109375 0.203125 -1.390625 C 0.203125 -1.671875 0.265625 -1.921875 0.390625 -2.140625 C 0.523438 -2.359375 0.695312 -2.523438 0.90625 -2.640625 C 1.125 -2.765625 1.363281 -2.828125 1.625 -2.828125 C 1.882812 -2.828125 2.117188 -2.765625 2.328125 -2.640625 C 2.546875 -2.523438 2.71875 -2.359375 2.84375 -2.140625 C 2.96875 -1.921875 3.03125 -1.671875 3.03125 -1.390625 Z M 2.421875 -1.390625 C 2.421875 -1.566406 2.382812 -1.71875 2.3125 -1.84375 C 2.238281 -1.976562 2.140625 -2.082031 2.015625 -2.15625 C 1.898438 -2.226562 1.769531 -2.265625 1.625 -2.265625 C 1.476562 -2.265625 1.34375 -2.226562 1.21875 -2.15625 C 1.101562 -2.082031 1.007812 -1.976562 0.9375 -1.84375 C 0.863281 -1.71875 0.828125 -1.566406 0.828125 -1.390625 C 0.828125 -1.210938 0.863281 -1.054688 0.9375 -0.921875 C 1.007812 -0.796875 1.101562 -0.695312 1.21875 -0.625 C 1.34375 -0.550781 1.476562 -0.515625 1.625 -0.515625 C 1.769531 -0.515625 1.898438 -0.550781 2.015625 -0.625 C 2.140625 -0.695312 2.238281 -0.796875 2.3125 -0.921875 C 2.382812 -1.054688 2.421875 -1.210938 2.421875 -1.390625 Z M 2.421875 -1.390625 "/></g></g></g><g fill="#000000" fill-opacity="1"><g transform="translate(254.360832, 207.248693)"><g><path d="M 0.921875 -0.3125 C 0.921875 -0.226562 0.890625 -0.15625 0.828125 -0.09375 C 0.773438 -0.03125 0.703125 0 0.609375 0 C 0.523438 0 0.453125 -0.03125 0.390625 -0.09375 C 0.328125 -0.15625 0.296875 -0.226562 0.296875 -0.3125 L 0.296875 -2.46875 C 0.296875 -2.550781 0.328125 -2.625 0.390625 -2.6875 C 0.453125 -2.75 0.523438 -2.78125 0.609375 -2.78125 C 0.703125 -2.78125 0.773438 -2.75 0.828125 -2.6875 C 0.890625 -2.625 0.921875 -2.550781 0.921875 -2.46875 Z M 0.609375 -3.125 C 0.492188 -3.125 0.410156 -3.140625 0.359375 -3.171875 C 0.316406 -3.210938 0.296875 -3.28125 0.296875 -3.375 L 0.296875 -3.484375 C 0.296875 -3.578125 0.320312 -3.640625 0.375 -3.671875 C 0.425781 -3.710938 0.507812 -3.734375 0.625 -3.734375 C 0.738281 -3.734375 0.820312 -3.710938 0.875 -3.671875 C 0.925781 -3.640625 0.953125 -3.578125 0.953125 -3.484375 L 0.953125 -3.375 C 0.953125 -3.28125 0.925781 -3.210938 0.875 -3.171875 C 0.820312 -3.140625 0.734375 -3.125 0.609375 -3.125 Z M 0.609375 -3.125 "/></g></g></g><g fill="#000000" fill-opacity="1"><g transform="translate(258.978443, 207.248693)"><g><path d="M 1.578125 -2.828125 C 1.773438 -2.828125 1.945312 -2.804688 2.09375 -2.765625 C 2.238281 -2.722656 2.351562 -2.664062 2.4375 -2.59375 C 2.519531 -2.519531 2.5625 -2.429688 2.5625 -2.328125 C 2.5625 -2.265625 2.539062 -2.203125 2.5 -2.140625 C 2.457031 -2.078125 2.394531 -2.046875 2.3125 -2.046875 C 2.257812 -2.046875 2.210938 -2.050781 2.171875 -2.0625 C 2.140625 -2.082031 2.109375 -2.101562 2.078125 -2.125 C 2.054688 -2.15625 2.023438 -2.179688 1.984375 -2.203125 C 1.953125 -2.222656 1.898438 -2.238281 1.828125 -2.25 C 1.753906 -2.257812 1.703125 -2.265625 1.671875 -2.265625 C 1.492188 -2.265625 1.34375 -2.222656 1.21875 -2.140625 C 1.09375 -2.066406 0.992188 -1.960938 0.921875 -1.828125 C 0.859375 -1.703125 0.828125 -1.554688 0.828125 -1.390625 C 0.828125 -1.222656 0.859375 -1.070312 0.921875 -0.9375 C 0.992188 -0.8125 1.085938 -0.707031 1.203125 -0.625 C 1.328125 -0.550781 1.46875 -0.515625 1.625 -0.515625 C 1.71875 -0.515625 1.796875 -0.519531 1.859375 -0.53125 C 1.921875 -0.539062 1.972656 -0.554688 2.015625 -0.578125 C 2.054688 -0.609375 2.097656 -0.640625 2.140625 -0.671875 C 2.179688 -0.703125 2.238281 -0.71875 2.3125 -0.71875 C 2.40625 -0.71875 2.472656 -0.6875 2.515625 -0.625 C 2.566406 -0.570312 2.59375 -0.503906 2.59375 -0.421875 C 2.59375 -0.335938 2.539062 -0.257812 2.4375 -0.1875 C 2.34375 -0.113281 2.21875 -0.0546875 2.0625 -0.015625 C 1.90625 0.0234375 1.734375 0.046875 1.546875 0.046875 C 1.273438 0.046875 1.035156 -0.015625 0.828125 -0.140625 C 0.628906 -0.265625 0.472656 -0.4375 0.359375 -0.65625 C 0.253906 -0.875 0.203125 -1.117188 0.203125 -1.390625 C 0.203125 -1.671875 0.257812 -1.921875 0.375 -2.140625 C 0.5 -2.359375 0.660156 -2.523438 0.859375 -2.640625 C 1.066406 -2.765625 1.304688 -2.828125 1.578125 -2.828125 Z M 1.578125 -2.828125 "/></g></g></g><g fill="#000000" fill-opacity="1"><g transform="translate(265.072878, 207.248693)"><g><path d="M 0.921875 -0.3125 C 0.921875 -0.226562 0.890625 -0.15625 0.828125 -0.09375 C 0.773438 -0.03125 0.703125 0 0.609375 0 C 0.523438 0 0.453125 -0.03125 0.390625 -0.09375 C 0.328125 -0.15625 0.296875 -0.226562 0.296875 -0.3125 L 0.296875 -2.46875 C 0.296875 -2.550781 0.328125 -2.625 0.390625 -2.6875 C 0.453125 -2.75 0.523438 -2.78125 0.609375 -2.78125 C 0.703125 -2.78125 0.773438 -2.75 0.828125 -2.6875 C 0.890625 -2.625 0.921875 -2.550781 0.921875 -2.46875 Z M 0.609375 -3.125 C 0.492188 -3.125 0.410156 -3.140625 0.359375 -3.171875 C 0.316406 -3.210938 0.296875 -3.28125 0.296875 -3.375 L 0.296875 -3.484375 C 0.296875 -3.578125 0.320312 -3.640625 0.375 -3.671875 C 0.425781 -3.710938 0.507812 -3.734375 0.625 -3.734375 C 0.738281 -3.734375 0.820312 -3.710938 0.875 -3.671875 C 0.925781 -3.640625 0.953125 -3.578125 0.953125 -3.484375 L 0.953125 -3.375 C 0.953125 -3.28125 0.925781 -3.210938 0.875 -3.171875 C 0.820312 -3.140625 0.734375 -3.125 0.609375 -3.125 Z M 0.609375 -3.125 "/></g></g></g><g fill="#000000" fill-opacity="1"><g transform="translate(269.69049, 207.248693)"><g><path d="M 1.828125 -2.828125 C 2.085938 -2.828125 2.28125 -2.773438 2.40625 -2.671875 C 2.539062 -2.566406 2.632812 -2.425781 2.6875 -2.25 C 2.738281 -2.070312 2.765625 -1.875 2.765625 -1.65625 L 2.765625 -0.3125 C 2.765625 -0.226562 2.734375 -0.15625 2.671875 -0.09375 C 2.609375 -0.03125 2.535156 0 2.453125 0 C 2.359375 0 2.28125 -0.03125 2.21875 -0.09375 C 2.164062 -0.15625 2.140625 -0.226562 2.140625 -0.3125 L 2.140625 -1.65625 C 2.140625 -1.769531 2.125 -1.867188 2.09375 -1.953125 C 2.0625 -2.046875 2.007812 -2.117188 1.9375 -2.171875 C 1.863281 -2.234375 1.753906 -2.265625 1.609375 -2.265625 C 1.472656 -2.265625 1.351562 -2.234375 1.25 -2.171875 C 1.15625 -2.117188 1.082031 -2.046875 1.03125 -1.953125 C 0.988281 -1.867188 0.96875 -1.769531 0.96875 -1.65625 L 0.96875 -0.3125 C 0.96875 -0.226562 0.9375 -0.15625 0.875 -0.09375 C 0.8125 -0.03125 0.738281 0 0.65625 0 C 0.5625 0 0.484375 -0.03125 0.421875 -0.09375 C 0.367188 -0.15625 0.34375 -0.226562 0.34375 -0.3125 L 0.34375 -2.46875 C 0.34375 -2.550781 0.367188 -2.625 0.421875 -2.6875 C 0.484375 -2.75 0.5625 -2.78125 0.65625 -2.78125 C 0.738281 -2.78125 0.8125 -2.75 0.875 -2.6875 C 0.9375 -2.625 0.96875 -2.550781 0.96875 -2.46875 L 0.96875 -2.25 L 0.890625 -2.265625 C 0.921875 -2.316406 0.960938 -2.375 1.015625 -2.4375 C 1.078125 -2.507812 1.144531 -2.570312 1.21875 -2.625 C 1.300781 -2.6875 1.394531 -2.734375 1.5 -2.765625 C 1.601562 -2.804688 1.710938 -2.828125 1.828125 -2.828125 Z M 1.828125 -2.828125 "/></g></g></g><g fill="#000000" fill-opacity="1"><g transform="translate(276.18012, 207.248693)"><g><path d="M 1.5 -2.828125 C 1.644531 -2.828125 1.773438 -2.804688 1.890625 -2.765625 C 2.015625 -2.722656 2.117188 -2.664062 2.203125 -2.59375 C 2.296875 -2.53125 2.367188 -2.460938 2.421875 -2.390625 C 2.472656 -2.316406 2.5 -2.253906 2.5 -2.203125 L 2.359375 -2.140625 L 2.359375 -2.515625 C 2.359375 -2.609375 2.382812 -2.679688 2.4375 -2.734375 C 2.5 -2.796875 2.578125 -2.828125 2.671875 -2.828125 C 2.753906 -2.828125 2.828125 -2.796875 2.890625 -2.734375 C 2.953125 -2.679688 2.984375 -2.609375 2.984375 -2.515625 L 2.984375 -0.203125 C 2.984375 0.0976562 2.914062 0.335938 2.78125 0.515625 C 2.65625 0.703125 2.484375 0.835938 2.265625 0.921875 C 2.054688 1.003906 1.832031 1.046875 1.59375 1.046875 C 1.519531 1.046875 1.425781 1.035156 1.3125 1.015625 C 1.207031 0.992188 1.101562 0.972656 1 0.953125 C 0.90625 0.929688 0.832031 0.910156 0.78125 0.890625 C 0.675781 0.835938 0.601562 0.773438 0.5625 0.703125 C 0.519531 0.640625 0.507812 0.570312 0.53125 0.5 C 0.5625 0.394531 0.613281 0.320312 0.6875 0.28125 C 0.757812 0.25 0.832031 0.25 0.90625 0.28125 C 0.9375 0.289062 0.992188 0.3125 1.078125 0.34375 C 1.160156 0.375 1.25 0.398438 1.34375 0.421875 C 1.4375 0.453125 1.519531 0.46875 1.59375 0.46875 C 1.851562 0.46875 2.046875 0.414062 2.171875 0.3125 C 2.296875 0.207031 2.359375 0.0625 2.359375 -0.125 L 2.359375 -0.578125 L 2.421875 -0.53125 C 2.421875 -0.476562 2.394531 -0.421875 2.34375 -0.359375 C 2.300781 -0.296875 2.238281 -0.234375 2.15625 -0.171875 C 2.070312 -0.109375 1.972656 -0.0546875 1.859375 -0.015625 C 1.753906 0.0234375 1.640625 0.046875 1.515625 0.046875 C 1.265625 0.046875 1.039062 -0.0078125 0.84375 -0.125 C 0.644531 -0.25 0.488281 -0.421875 0.375 -0.640625 C 0.257812 -0.859375 0.203125 -1.109375 0.203125 -1.390625 C 0.203125 -1.671875 0.257812 -1.921875 0.375 -2.140625 C 0.488281 -2.359375 0.644531 -2.523438 0.84375 -2.640625 C 1.039062 -2.765625 1.257812 -2.828125 1.5 -2.828125 Z M 1.59375 -2.265625 C 1.4375 -2.265625 1.296875 -2.222656 1.171875 -2.140625 C 1.054688 -2.066406 0.96875 -1.960938 0.90625 -1.828125 C 0.84375 -1.703125 0.8125 -1.554688 0.8125 -1.390625 C 0.8125 -1.222656 0.84375 -1.070312 0.90625 -0.9375 C 0.96875 -0.8125 1.054688 -0.707031 1.171875 -0.625 C 1.296875 -0.550781 1.4375 -0.515625 1.59375 -0.515625 C 1.75 -0.515625 1.882812 -0.550781 2 -0.625 C 2.125 -0.707031 2.21875 -0.8125 2.28125 -0.9375 C 2.351562 -1.070312 2.390625 -1.222656 2.390625 -1.390625 C 2.390625 -1.554688 2.351562 -1.703125 2.28125 -1.828125 C 2.21875 -1.960938 2.125 -2.066406 2 -2.140625 C 1.882812 -2.222656 1.75 -2.265625 1.59375 -2.265625 Z M 1.59375 -2.265625 "/></g></g></g></svg>